<?xml version="1.0" encoding="UTF-8" standalone="no"?>
<!DOCTYPE svg PUBLIC "-//W3C//DTD SVG 1.1//EN"
 "http://www.w3.org/Graphics/SVG/1.1/DTD/svg11.dtd">
<!-- Generated by graphviz version 2.47.0 (20210316.0004)
 -->
<!-- Title: dependencies Pages: 1 -->
<svg width="534pt" height="211pt"
 viewBox="0.00 0.00 534.00 211.00" xmlns="http://www.w3.org/2000/svg" xmlns:xlink="http://www.w3.org/1999/xlink">
<g id="graph0" class="graph" transform="scale(1 1) rotate(0) translate(4 207)">
<title>dependencies</title>
<polygon fill="white" stroke="transparent" points="-4,4 -4,-207 530,-207 530,4 -4,4"/>
<text text-anchor="start" x="242.01" y="-42.4" font-family="Times-12" font-weight="bold" font-size="14.00">Legend</text>
<polygon fill="#ffffb3" stroke="transparent" points="29,-10 29,-30 49,-30 49,-10 29,-10"/>
<text text-anchor="start" x="52.63" y="-15.4" font-family="Times-12" font-size="14.00"> &#160;Declarations</text>
<polygon fill="#8dd3c7" stroke="transparent" points="142,-10 142,-30 162,-30 162,-10 142,-10"/>
<text text-anchor="start" x="165.73" y="-15.4" font-family="Times-12" font-size="14.00"> &#160;Module</text>
<polygon fill="#80b1d3" stroke="transparent" points="228,-10 228,-30 248,-30 248,-10 228,-10"/>
<text text-anchor="start" x="251.78" y="-15.4" font-family="Times-12" font-size="14.00"> &#160;Bootstrap</text>
<polygon fill="#fdb462" stroke="transparent" points="325,-10 325,-30 345,-30 345,-10 325,-10"/>
<text text-anchor="start" x="348.67" y="-15.4" font-family="Times-12" font-size="14.00"> &#160;Providers</text>
<polygon fill="#fb8072" stroke="transparent" points="421,-10 421,-30 441,-30 441,-10 421,-10"/>
<text text-anchor="start" x="444.73" y="-15.4" font-family="Times-12" font-size="14.00"> &#160;Exports</text>
<g id="clust1" class="cluster">
<title>cluster_SmsModule</title>
<polygon fill="none" stroke="black" stroke-dasharray="1,5" points="8,-70 8,-195 518,-195 518,-70 8,-70"/>
</g>
<g id="clust6" class="cluster">
<title>cluster_SmsModule_providers</title>
<polygon fill="none" stroke="black" points="16,-78 16,-130 510,-130 510,-78 16,-78"/>
</g>
<!-- EvolutionApiService -->
<g id="node1" class="node">
<title>EvolutionApiService</title>
<ellipse fill="#fdb462" stroke="black" cx="409" cy="-104" rx="92.64" ry="18"/>
<text text-anchor="middle" x="409" y="-99.8" font-family="Times,serif" font-size="14.00">EvolutionApiService</text>
</g>
<!-- SmsModule -->
<g id="node4" class="node">
<title>SmsModule</title>
<polygon fill="#8dd3c7" stroke="black" points="277.67,-187 274.67,-191 253.67,-191 250.67,-187 194.33,-187 194.33,-151 277.67,-151 277.67,-187"/>
<text text-anchor="middle" x="236" y="-164.8" font-family="Times,serif" font-size="14.00">SmsModule</text>
</g>
<!-- EvolutionApiService&#45;&gt;SmsModule -->
<g id="edge1" class="edge">
<title>EvolutionApiService&#45;&gt;SmsModule</title>
<path fill="none" stroke="black" d="M409,-122.11C409,-141.34 409,-169 409,-169 409,-169 287.88,-169 287.88,-169"/>
<polygon fill="black" stroke="black" points="287.88,-165.5 277.88,-169 287.88,-172.5 287.88,-165.5"/>
</g>
<!-- RedisService -->
<g id="node2" class="node">
<title>RedisService</title>
<ellipse fill="#fdb462" stroke="black" cx="236" cy="-104" rx="61.97" ry="18"/>
<text text-anchor="middle" x="236" y="-99.8" font-family="Times,serif" font-size="14.00">RedisService</text>
</g>
<!-- RedisService&#45;&gt;SmsModule -->
<g id="edge2" class="edge">
<title>RedisService&#45;&gt;SmsModule</title>
<path fill="none" stroke="black" d="M236,-122.11C236,-122.11 236,-140.99 236,-140.99"/>
<polygon fill="black" stroke="black" points="232.5,-140.99 236,-150.99 239.5,-140.99 232.5,-140.99"/>
</g>
<!-- TwilioService -->
<g id="node3" class="node">
<title>TwilioService</title>
<ellipse fill="#fdb462" stroke="black" cx="90" cy="-104" rx="65.99" ry="18"/>
<text text-anchor="middle" x="90" y="-99.8" font-family="Times,serif" font-size="14.00">TwilioService</text>
</g>
<!-- TwilioService&#45;&gt;SmsModule -->
<g id="edge3" class="edge">
<title>TwilioService&#45;&gt;SmsModule</title>
<path fill="none" stroke="black" d="M90,-122.11C90,-141.34 90,-169 90,-169 90,-169 184.16,-169 184.16,-169"/>
<polygon fill="black" stroke="black" points="184.16,-172.5 194.16,-169 184.16,-165.5 184.16,-172.5"/>
</g>
</g>
</svg>
