<?xml version="1.0" encoding="UTF-8" standalone="no"?>
<!DOCTYPE svg PUBLIC "-//W3C//DTD SVG 1.1//EN"
 "http://www.w3.org/Graphics/SVG/1.1/DTD/svg11.dtd">
<!-- Generated by graphviz version 2.47.0 (20210316.0004)
 -->
<!-- Title: dependencies Pages: 1 -->
<svg width="532pt" height="284pt"
 viewBox="0.00 0.00 532.00 284.00" xmlns="http://www.w3.org/2000/svg" xmlns:xlink="http://www.w3.org/1999/xlink">
<g id="graph0" class="graph" transform="scale(1 1) rotate(0) translate(4 280)">
<title>dependencies</title>
<polygon fill="white" stroke="transparent" points="-4,4 -4,-280 528,-280 528,4 -4,4"/>
<text text-anchor="start" x="241.01" y="-42.4" font-family="Times-12" font-weight="bold" font-size="14.00">Legend</text>
<polygon fill="#ffffb3" stroke="transparent" points="28,-10 28,-30 48,-30 48,-10 28,-10"/>
<text text-anchor="start" x="51.63" y="-15.4" font-family="Times-12" font-size="14.00"> &#160;Declarations</text>
<polygon fill="#8dd3c7" stroke="transparent" points="141,-10 141,-30 161,-30 161,-10 141,-10"/>
<text text-anchor="start" x="164.73" y="-15.4" font-family="Times-12" font-size="14.00"> &#160;Module</text>
<polygon fill="#80b1d3" stroke="transparent" points="227,-10 227,-30 247,-30 247,-10 227,-10"/>
<text text-anchor="start" x="250.78" y="-15.4" font-family="Times-12" font-size="14.00"> &#160;Bootstrap</text>
<polygon fill="#fdb462" stroke="transparent" points="324,-10 324,-30 344,-30 344,-10 324,-10"/>
<text text-anchor="start" x="347.67" y="-15.4" font-family="Times-12" font-size="14.00"> &#160;Providers</text>
<polygon fill="#fb8072" stroke="transparent" points="420,-10 420,-30 440,-30 440,-10 420,-10"/>
<text text-anchor="start" x="443.73" y="-15.4" font-family="Times-12" font-size="14.00"> &#160;Exports</text>
<g id="clust1" class="cluster">
<title>cluster_AppointmentModule</title>
<polygon fill="none" stroke="black" stroke-dasharray="1,5" points="8,-70 8,-268 516,-268 516,-70 8,-70"/>
</g>
<g id="clust4" class="cluster">
<title>cluster_AppointmentModule_exports</title>
<polygon fill="none" stroke="black" points="211,-208 211,-260 363,-260 363,-208 211,-208"/>
</g>
<g id="clust3" class="cluster">
<title>cluster_AppointmentModule_imports</title>
<polygon fill="none" stroke="black" points="394,-78 394,-130 508,-130 508,-78 394,-78"/>
</g>
<g id="clust6" class="cluster">
<title>cluster_AppointmentModule_providers</title>
<polygon fill="none" stroke="black" points="16,-78 16,-130 386,-130 386,-78 16,-78"/>
</g>
<!-- PrismaModule -->
<g id="node1" class="node">
<title>PrismaModule</title>
<polygon fill="#8dd3c7" stroke="black" points="500.43,-122 497.43,-126 476.43,-126 473.43,-122 401.57,-122 401.57,-86 500.43,-86 500.43,-122"/>
<text text-anchor="middle" x="451" y="-99.8" font-family="Times,serif" font-size="14.00">PrismaModule</text>
</g>
<!-- AppointmentModule -->
<g id="node2" class="node">
<title>AppointmentModule</title>
<polygon fill="#8dd3c7" stroke="black" points="353.93,-187 350.93,-191 329.93,-191 326.93,-187 220.07,-187 220.07,-151 353.93,-151 353.93,-187"/>
<text text-anchor="middle" x="287" y="-164.8" font-family="Times,serif" font-size="14.00">AppointmentModule</text>
</g>
<!-- PrismaModule&#45;&gt;AppointmentModule -->
<g id="edge1" class="edge">
<title>PrismaModule&#45;&gt;AppointmentModule</title>
<path fill="none" stroke="black" d="M451,-122.11C451,-141.34 451,-169 451,-169 451,-169 364.18,-169 364.18,-169"/>
<polygon fill="black" stroke="black" points="364.18,-165.5 354.18,-169 364.18,-172.5 364.18,-165.5"/>
</g>
<!-- AppointmentService  -->
<g id="node3" class="node">
<title>AppointmentService </title>
<polygon fill="#fb8072" stroke="black" points="354.86,-252 219.14,-252 219.14,-216 354.86,-216 354.86,-252"/>
<text text-anchor="middle" x="287" y="-229.8" font-family="Times,serif" font-size="14.00">AppointmentService </text>
</g>
<!-- AppointmentModule&#45;&gt;AppointmentService  -->
<g id="edge2" class="edge">
<title>AppointmentModule&#45;&gt;AppointmentService </title>
<path fill="none" stroke="black" stroke-dasharray="5,2" d="M287,-187.11C287,-187.11 287,-205.99 287,-205.99"/>
<polygon fill="black" stroke="black" points="283.5,-205.99 287,-215.99 290.5,-205.99 283.5,-205.99"/>
</g>
<!-- AppointmentService -->
<g id="node4" class="node">
<title>AppointmentService</title>
<ellipse fill="#fdb462" stroke="black" cx="287" cy="-104" rx="90.91" ry="18"/>
<text text-anchor="middle" x="287" y="-99.8" font-family="Times,serif" font-size="14.00">AppointmentService</text>
</g>
<!-- AppointmentService&#45;&gt;AppointmentModule -->
<g id="edge3" class="edge">
<title>AppointmentService&#45;&gt;AppointmentModule</title>
<path fill="none" stroke="black" d="M287,-122.11C287,-122.11 287,-140.99 287,-140.99"/>
<polygon fill="black" stroke="black" points="283.5,-140.99 287,-150.99 290.5,-140.99 283.5,-140.99"/>
</g>
<!-- ResponseService -->
<g id="node5" class="node">
<title>ResponseService</title>
<ellipse fill="#fdb462" stroke="black" cx="101" cy="-104" rx="77" ry="18"/>
<text text-anchor="middle" x="101" y="-99.8" font-family="Times,serif" font-size="14.00">ResponseService</text>
</g>
<!-- ResponseService&#45;&gt;AppointmentModule -->
<g id="edge4" class="edge">
<title>ResponseService&#45;&gt;AppointmentModule</title>
<path fill="none" stroke="black" d="M101,-122.11C101,-141.34 101,-169 101,-169 101,-169 210.11,-169 210.11,-169"/>
<polygon fill="black" stroke="black" points="210.11,-172.5 220.11,-169 210.11,-165.5 210.11,-172.5"/>
</g>
</g>
</svg>
