<?xml version="1.0" encoding="UTF-8" standalone="no"?>
<!DOCTYPE svg PUBLIC "-//W3C//DTD SVG 1.1//EN"
 "http://www.w3.org/Graphics/SVG/1.1/DTD/svg11.dtd">
<!-- Generated by graphviz version 2.47.0 (20210316.0004)
 -->
<!-- Title: dependencies Pages: 1 -->
<svg width="710pt" height="211pt"
 viewBox="0.00 0.00 710.00 211.00" xmlns="http://www.w3.org/2000/svg" xmlns:xlink="http://www.w3.org/1999/xlink">
<g id="graph0" class="graph" transform="scale(1 1) rotate(0) translate(4 207)">
<title>dependencies</title>
<polygon fill="white" stroke="transparent" points="-4,4 -4,-207 706,-207 706,4 -4,4"/>
<text text-anchor="start" x="330.01" y="-42.4" font-family="Times-12" font-weight="bold" font-size="14.00">Legend</text>
<polygon fill="#ffffb3" stroke="transparent" points="117,-10 117,-30 137,-30 137,-10 117,-10"/>
<text text-anchor="start" x="140.63" y="-15.4" font-family="Times-12" font-size="14.00"> &#160;Declarations</text>
<polygon fill="#8dd3c7" stroke="transparent" points="230,-10 230,-30 250,-30 250,-10 230,-10"/>
<text text-anchor="start" x="253.73" y="-15.4" font-family="Times-12" font-size="14.00"> &#160;Module</text>
<polygon fill="#80b1d3" stroke="transparent" points="316,-10 316,-30 336,-30 336,-10 316,-10"/>
<text text-anchor="start" x="339.78" y="-15.4" font-family="Times-12" font-size="14.00"> &#160;Bootstrap</text>
<polygon fill="#fdb462" stroke="transparent" points="413,-10 413,-30 433,-30 433,-10 413,-10"/>
<text text-anchor="start" x="436.67" y="-15.4" font-family="Times-12" font-size="14.00"> &#160;Providers</text>
<polygon fill="#fb8072" stroke="transparent" points="509,-10 509,-30 529,-30 529,-10 509,-10"/>
<text text-anchor="start" x="532.73" y="-15.4" font-family="Times-12" font-size="14.00"> &#160;Exports</text>
<g id="clust1" class="cluster">
<title>cluster_UserModule</title>
<polygon fill="none" stroke="black" stroke-dasharray="1,5" points="8,-70 8,-195 694,-195 694,-70 8,-70"/>
</g>
<g id="clust3" class="cluster">
<title>cluster_UserModule_imports</title>
<polygon fill="none" stroke="black" points="470,-78 470,-130 686,-130 686,-78 470,-78"/>
</g>
<g id="clust6" class="cluster">
<title>cluster_UserModule_providers</title>
<polygon fill="none" stroke="black" points="16,-78 16,-130 462,-130 462,-78 16,-78"/>
</g>
<!-- PrismaModule -->
<g id="node1" class="node">
<title>PrismaModule</title>
<polygon fill="#8dd3c7" stroke="black" points="678.43,-122 675.43,-126 654.43,-126 651.43,-122 579.57,-122 579.57,-86 678.43,-86 678.43,-122"/>
<text text-anchor="middle" x="629" y="-99.8" font-family="Times,serif" font-size="14.00">PrismaModule</text>
</g>
<!-- UserModule -->
<g id="node3" class="node">
<title>UserModule</title>
<polygon fill="#8dd3c7" stroke="black" points="434.98,-187 431.98,-191 410.98,-191 407.98,-187 349.02,-187 349.02,-151 434.98,-151 434.98,-187"/>
<text text-anchor="middle" x="392" y="-164.8" font-family="Times,serif" font-size="14.00">UserModule</text>
</g>
<!-- PrismaModule&#45;&gt;UserModule -->
<g id="edge1" class="edge">
<title>PrismaModule&#45;&gt;UserModule</title>
<path fill="none" stroke="black" d="M629,-122.28C629,-143.32 629,-175 629,-175 629,-175 445.19,-175 445.19,-175"/>
<polygon fill="black" stroke="black" points="445.19,-171.5 435.19,-175 445.19,-178.5 445.19,-171.5"/>
</g>
<!-- SmsModule -->
<g id="node2" class="node">
<title>SmsModule</title>
<polygon fill="#8dd3c7" stroke="black" points="561.67,-122 558.67,-126 537.67,-126 534.67,-122 478.33,-122 478.33,-86 561.67,-86 561.67,-122"/>
<text text-anchor="middle" x="520" y="-99.8" font-family="Times,serif" font-size="14.00">SmsModule</text>
</g>
<!-- SmsModule&#45;&gt;UserModule -->
<g id="edge2" class="edge">
<title>SmsModule&#45;&gt;UserModule</title>
<path fill="none" stroke="black" d="M520,-122.02C520,-139.37 520,-163 520,-163 520,-163 444.98,-163 444.98,-163"/>
<polygon fill="black" stroke="black" points="444.98,-159.5 434.98,-163 444.98,-166.5 444.98,-159.5"/>
</g>
<!-- RedisService -->
<g id="node4" class="node">
<title>RedisService</title>
<ellipse fill="#fdb462" stroke="black" cx="392" cy="-104" rx="61.97" ry="18"/>
<text text-anchor="middle" x="392" y="-99.8" font-family="Times,serif" font-size="14.00">RedisService</text>
</g>
<!-- RedisService&#45;&gt;UserModule -->
<g id="edge3" class="edge">
<title>RedisService&#45;&gt;UserModule</title>
<path fill="none" stroke="black" d="M392,-122.11C392,-122.11 392,-140.99 392,-140.99"/>
<polygon fill="black" stroke="black" points="388.5,-140.99 392,-150.99 395.5,-140.99 388.5,-140.99"/>
</g>
<!-- ResponseService -->
<g id="node5" class="node">
<title>ResponseService</title>
<ellipse fill="#fdb462" stroke="black" cx="235" cy="-104" rx="77" ry="18"/>
<text text-anchor="middle" x="235" y="-99.8" font-family="Times,serif" font-size="14.00">ResponseService</text>
</g>
<!-- ResponseService&#45;&gt;UserModule -->
<g id="edge4" class="edge">
<title>ResponseService&#45;&gt;UserModule</title>
<path fill="none" stroke="black" d="M235,-122.02C235,-139.37 235,-163 235,-163 235,-163 338.68,-163 338.68,-163"/>
<polygon fill="black" stroke="black" points="338.68,-166.5 348.68,-163 338.68,-159.5 338.68,-166.5"/>
</g>
<!-- UserService -->
<g id="node6" class="node">
<title>UserService</title>
<ellipse fill="#fdb462" stroke="black" cx="82" cy="-104" rx="58.44" ry="18"/>
<text text-anchor="middle" x="82" y="-99.8" font-family="Times,serif" font-size="14.00">UserService</text>
</g>
<!-- UserService&#45;&gt;UserModule -->
<g id="edge5" class="edge">
<title>UserService&#45;&gt;UserModule</title>
<path fill="none" stroke="black" d="M82,-122.28C82,-143.32 82,-175 82,-175 82,-175 338.9,-175 338.9,-175"/>
<polygon fill="black" stroke="black" points="338.9,-178.5 348.9,-175 338.9,-171.5 338.9,-178.5"/>
</g>
</g>
</svg>
