<?xml version="1.0" encoding="UTF-8" standalone="no"?>
<!DOCTYPE svg PUBLIC "-//W3C//DTD SVG 1.1//EN"
 "http://www.w3.org/Graphics/SVG/1.1/DTD/svg11.dtd">
<!-- Generated by graphviz version 2.47.0 (20210316.0004)
 -->
<!-- Title: dependencies Pages: 1 -->
<svg width="710pt" height="211pt"
 viewBox="0.00 0.00 710.00 211.00" xmlns="http://www.w3.org/2000/svg" xmlns:xlink="http://www.w3.org/1999/xlink">
<g id="graph0" class="graph" transform="scale(1 1) rotate(0) translate(4 207)">
<title>dependencies</title>
<polygon fill="white" stroke="transparent" points="-4,4 -4,-207 706,-207 706,4 -4,4"/>
<text text-anchor="start" x="330.01" y="-42.4" font-family="Times-12" font-weight="bold" font-size="14.00">Legend</text>
<polygon fill="#ffffb3" stroke="transparent" points="117,-10 117,-30 137,-30 137,-10 117,-10"/>
<text text-anchor="start" x="140.63" y="-15.4" font-family="Times-12" font-size="14.00"> &#160;Declarations</text>
<polygon fill="#8dd3c7" stroke="transparent" points="230,-10 230,-30 250,-30 250,-10 230,-10"/>
<text text-anchor="start" x="253.73" y="-15.4" font-family="Times-12" font-size="14.00"> &#160;Module</text>
<polygon fill="#80b1d3" stroke="transparent" points="316,-10 316,-30 336,-30 336,-10 316,-10"/>
<text text-anchor="start" x="339.78" y="-15.4" font-family="Times-12" font-size="14.00"> &#160;Bootstrap</text>
<polygon fill="#fdb462" stroke="transparent" points="413,-10 413,-30 433,-30 433,-10 413,-10"/>
<text text-anchor="start" x="436.67" y="-15.4" font-family="Times-12" font-size="14.00"> &#160;Providers</text>
<polygon fill="#fb8072" stroke="transparent" points="509,-10 509,-30 529,-30 529,-10 509,-10"/>
<text text-anchor="start" x="532.73" y="-15.4" font-family="Times-12" font-size="14.00"> &#160;Exports</text>
<g id="clust1" class="cluster">
<title>cluster_UserModule</title>
<polygon fill="none" stroke="black" stroke-dasharray="1,5" points="8,-70 8,-195 694,-195 694,-70 8,-70"/>
</g>
<g id="clust6" class="cluster">
<title>cluster_UserModule_providers</title>
<polygon fill="none" stroke="black" points="240,-78 240,-130 686,-130 686,-78 240,-78"/>
</g>
<g id="clust3" class="cluster">
<title>cluster_UserModule_imports</title>
<polygon fill="none" stroke="black" points="16,-78 16,-130 232,-130 232,-78 16,-78"/>
</g>
<!-- PrismaModule -->
<g id="node1" class="node">
<title>PrismaModule</title>
<polygon fill="#8dd3c7" stroke="black" points="224.43,-122 221.43,-126 200.43,-126 197.43,-122 125.57,-122 125.57,-86 224.43,-86 224.43,-122"/>
<text text-anchor="middle" x="175" y="-99.8" font-family="Times,serif" font-size="14.00">PrismaModule</text>
</g>
<!-- UserModule -->
<g id="node3" class="node">
<title>UserModule</title>
<polygon fill="#8dd3c7" stroke="black" points="348.98,-187 345.98,-191 324.98,-191 321.98,-187 263.02,-187 263.02,-151 348.98,-151 348.98,-187"/>
<text text-anchor="middle" x="306" y="-164.8" font-family="Times,serif" font-size="14.00">UserModule</text>
</g>
<!-- PrismaModule&#45;&gt;UserModule -->
<g id="edge1" class="edge">
<title>PrismaModule&#45;&gt;UserModule</title>
<path fill="none" stroke="black" d="M175,-122.02C175,-139.37 175,-163 175,-163 175,-163 252.74,-163 252.74,-163"/>
<polygon fill="black" stroke="black" points="252.74,-166.5 262.74,-163 252.74,-159.5 252.74,-166.5"/>
</g>
<!-- SmsModule -->
<g id="node2" class="node">
<title>SmsModule</title>
<polygon fill="#8dd3c7" stroke="black" points="107.67,-122 104.67,-126 83.67,-126 80.67,-122 24.33,-122 24.33,-86 107.67,-86 107.67,-122"/>
<text text-anchor="middle" x="66" y="-99.8" font-family="Times,serif" font-size="14.00">SmsModule</text>
</g>
<!-- SmsModule&#45;&gt;UserModule -->
<g id="edge2" class="edge">
<title>SmsModule&#45;&gt;UserModule</title>
<path fill="none" stroke="black" d="M66,-122.28C66,-143.32 66,-175 66,-175 66,-175 252.82,-175 252.82,-175"/>
<polygon fill="black" stroke="black" points="252.82,-178.5 262.82,-175 252.82,-171.5 252.82,-178.5"/>
</g>
<!-- RedisService -->
<g id="node4" class="node">
<title>RedisService</title>
<ellipse fill="#fdb462" stroke="black" cx="616" cy="-104" rx="61.97" ry="18"/>
<text text-anchor="middle" x="616" y="-99.8" font-family="Times,serif" font-size="14.00">RedisService</text>
</g>
<!-- RedisService&#45;&gt;UserModule -->
<g id="edge3" class="edge">
<title>RedisService&#45;&gt;UserModule</title>
<path fill="none" stroke="black" d="M616,-122.28C616,-143.32 616,-175 616,-175 616,-175 359.1,-175 359.1,-175"/>
<polygon fill="black" stroke="black" points="359.1,-171.5 349.1,-175 359.1,-178.5 359.1,-171.5"/>
</g>
<!-- ResponseService -->
<g id="node5" class="node">
<title>ResponseService</title>
<ellipse fill="#fdb462" stroke="black" cx="459" cy="-104" rx="77" ry="18"/>
<text text-anchor="middle" x="459" y="-99.8" font-family="Times,serif" font-size="14.00">ResponseService</text>
</g>
<!-- ResponseService&#45;&gt;UserModule -->
<g id="edge4" class="edge">
<title>ResponseService&#45;&gt;UserModule</title>
<path fill="none" stroke="black" d="M459,-122.02C459,-139.37 459,-163 459,-163 459,-163 359.03,-163 359.03,-163"/>
<polygon fill="black" stroke="black" points="359.03,-159.5 349.03,-163 359.03,-166.5 359.03,-159.5"/>
</g>
<!-- UserService -->
<g id="node6" class="node">
<title>UserService</title>
<ellipse fill="#fdb462" stroke="black" cx="306" cy="-104" rx="58.44" ry="18"/>
<text text-anchor="middle" x="306" y="-99.8" font-family="Times,serif" font-size="14.00">UserService</text>
</g>
<!-- UserService&#45;&gt;UserModule -->
<g id="edge5" class="edge">
<title>UserService&#45;&gt;UserModule</title>
<path fill="none" stroke="black" d="M306,-122.11C306,-122.11 306,-140.99 306,-140.99"/>
<polygon fill="black" stroke="black" points="302.5,-140.99 306,-150.99 309.5,-140.99 302.5,-140.99"/>
</g>
</g>
</svg>
