<?xml version="1.0" encoding="UTF-8" standalone="no"?>
<!DOCTYPE svg PUBLIC "-//W3C//DTD SVG 1.1//EN"
 "http://www.w3.org/Graphics/SVG/1.1/DTD/svg11.dtd">
<!-- Generated by graphviz version 2.47.0 (20210316.0004)
 -->
<!-- Title: dependencies Pages: 1 -->
<svg width="1229pt" height="284pt"
 viewBox="0.00 0.00 1229.00 284.00" xmlns="http://www.w3.org/2000/svg" xmlns:xlink="http://www.w3.org/1999/xlink">
<g id="graph0" class="graph" transform="scale(1 1) rotate(0) translate(4 280)">
<title>dependencies</title>
<polygon fill="white" stroke="transparent" points="-4,4 -4,-280 1225,-280 1225,4 -4,4"/>
<text text-anchor="start" x="589.51" y="-42.4" font-family="Times-12" font-weight="bold" font-size="14.00">Legend</text>
<polygon fill="#ffffb3" stroke="transparent" points="376.5,-10 376.5,-30 396.5,-30 396.5,-10 376.5,-10"/>
<text text-anchor="start" x="400.13" y="-15.4" font-family="Times-12" font-size="14.00"> &#160;Declarations</text>
<polygon fill="#8dd3c7" stroke="transparent" points="489.5,-10 489.5,-30 509.5,-30 509.5,-10 489.5,-10"/>
<text text-anchor="start" x="513.23" y="-15.4" font-family="Times-12" font-size="14.00"> &#160;Module</text>
<polygon fill="#80b1d3" stroke="transparent" points="575.5,-10 575.5,-30 595.5,-30 595.5,-10 575.5,-10"/>
<text text-anchor="start" x="599.28" y="-15.4" font-family="Times-12" font-size="14.00"> &#160;Bootstrap</text>
<polygon fill="#fdb462" stroke="transparent" points="672.5,-10 672.5,-30 692.5,-30 692.5,-10 672.5,-10"/>
<text text-anchor="start" x="696.17" y="-15.4" font-family="Times-12" font-size="14.00"> &#160;Providers</text>
<polygon fill="#fb8072" stroke="transparent" points="768.5,-10 768.5,-30 788.5,-30 788.5,-10 768.5,-10"/>
<text text-anchor="start" x="792.23" y="-15.4" font-family="Times-12" font-size="14.00"> &#160;Exports</text>
<g id="clust1" class="cluster">
<title>cluster_AuthModule</title>
<polygon fill="none" stroke="black" stroke-dasharray="1,5" points="8,-70 8,-268 1213,-268 1213,-70 8,-70"/>
</g>
<g id="clust3" class="cluster">
<title>cluster_AuthModule_imports</title>
<polygon fill="none" stroke="black" points="885,-78 885,-130 1205,-130 1205,-78 885,-78"/>
</g>
<g id="clust6" class="cluster">
<title>cluster_AuthModule_providers</title>
<polygon fill="none" stroke="black" points="16,-78 16,-130 877,-130 877,-78 16,-78"/>
</g>
<g id="clust4" class="cluster">
<title>cluster_AuthModule_exports</title>
<polygon fill="none" stroke="black" points="669,-208 669,-260 775,-260 775,-208 669,-208"/>
</g>
<!-- PrismaModule -->
<g id="node1" class="node">
<title>PrismaModule</title>
<polygon fill="#8dd3c7" stroke="black" points="1197.43,-122 1194.43,-126 1173.43,-126 1170.43,-122 1098.57,-122 1098.57,-86 1197.43,-86 1197.43,-122"/>
<text text-anchor="middle" x="1148" y="-99.8" font-family="Times,serif" font-size="14.00">PrismaModule</text>
</g>
<!-- AuthModule -->
<g id="node4" class="node">
<title>AuthModule</title>
<polygon fill="#8dd3c7" stroke="black" points="765.55,-187 762.55,-191 741.55,-191 738.55,-187 678.45,-187 678.45,-151 765.55,-151 765.55,-187"/>
<text text-anchor="middle" x="722" y="-164.8" font-family="Times,serif" font-size="14.00">AuthModule</text>
</g>
<!-- PrismaModule&#45;&gt;AuthModule -->
<g id="edge1" class="edge">
<title>PrismaModule&#45;&gt;AuthModule</title>
<path fill="none" stroke="black" d="M1148,-122.29C1148,-144.21 1148,-178 1148,-178 1148,-178 775.59,-178 775.59,-178"/>
<polygon fill="black" stroke="black" points="775.59,-174.5 765.59,-178 775.59,-181.5 775.59,-174.5"/>
</g>
<!-- SmsModule -->
<g id="node2" class="node">
<title>SmsModule</title>
<polygon fill="#8dd3c7" stroke="black" points="1080.67,-122 1077.67,-126 1056.67,-126 1053.67,-122 997.33,-122 997.33,-86 1080.67,-86 1080.67,-122"/>
<text text-anchor="middle" x="1039" y="-99.8" font-family="Times,serif" font-size="14.00">SmsModule</text>
</g>
<!-- SmsModule&#45;&gt;AuthModule -->
<g id="edge2" class="edge">
<title>SmsModule&#45;&gt;AuthModule</title>
<path fill="none" stroke="black" d="M1039,-122.11C1039,-141.34 1039,-169 1039,-169 1039,-169 775.74,-169 775.74,-169"/>
<polygon fill="black" stroke="black" points="775.74,-165.5 765.74,-169 775.74,-172.5 775.74,-165.5"/>
</g>
<!-- UserModule -->
<g id="node3" class="node">
<title>UserModule</title>
<polygon fill="#8dd3c7" stroke="black" points="978.98,-122 975.98,-126 954.98,-126 951.98,-122 893.02,-122 893.02,-86 978.98,-86 978.98,-122"/>
<text text-anchor="middle" x="936" y="-99.8" font-family="Times,serif" font-size="14.00">UserModule</text>
</g>
<!-- UserModule&#45;&gt;AuthModule -->
<g id="edge3" class="edge">
<title>UserModule&#45;&gt;AuthModule</title>
<path fill="none" stroke="black" d="M936,-122.03C936,-138.4 936,-160 936,-160 936,-160 775.56,-160 775.56,-160"/>
<polygon fill="black" stroke="black" points="775.56,-156.5 765.56,-160 775.56,-163.5 775.56,-156.5"/>
</g>
<!-- AuthService  -->
<g id="node5" class="node">
<title>AuthService </title>
<polygon fill="#fb8072" stroke="black" points="766.98,-252 677.02,-252 677.02,-216 766.98,-216 766.98,-252"/>
<text text-anchor="middle" x="722" y="-229.8" font-family="Times,serif" font-size="14.00">AuthService </text>
</g>
<!-- AuthModule&#45;&gt;AuthService  -->
<g id="edge4" class="edge">
<title>AuthModule&#45;&gt;AuthService </title>
<path fill="none" stroke="black" stroke-dasharray="5,2" d="M722,-187.11C722,-187.11 722,-205.99 722,-205.99"/>
<polygon fill="black" stroke="black" points="718.5,-205.99 722,-215.99 725.5,-205.99 718.5,-205.99"/>
</g>
<!-- AuthService -->
<g id="node6" class="node">
<title>AuthService</title>
<ellipse fill="#fdb462" stroke="black" cx="810" cy="-104" rx="59.11" ry="18"/>
<text text-anchor="middle" x="810" y="-99.8" font-family="Times,serif" font-size="14.00">AuthService</text>
</g>
<!-- AuthService&#45;&gt;AuthModule -->
<g id="edge5" class="edge">
<title>AuthService&#45;&gt;AuthModule</title>
<path fill="none" stroke="black" d="M758.23,-113.04C758.23,-113.04 758.23,-140.96 758.23,-140.96"/>
<polygon fill="black" stroke="black" points="754.73,-140.96 758.23,-150.96 761.73,-140.96 754.73,-140.96"/>
</g>
<!-- BlacklistTokenService -->
<g id="node7" class="node">
<title>BlacklistTokenService</title>
<ellipse fill="#fdb462" stroke="black" cx="634" cy="-104" rx="98.99" ry="18"/>
<text text-anchor="middle" x="634" y="-99.8" font-family="Times,serif" font-size="14.00">BlacklistTokenService</text>
</g>
<!-- BlacklistTokenService&#45;&gt;AuthModule -->
<g id="edge6" class="edge">
<title>BlacklistTokenService&#45;&gt;AuthModule</title>
<path fill="none" stroke="black" d="M705.61,-116.53C705.61,-116.53 705.61,-140.85 705.61,-140.85"/>
<polygon fill="black" stroke="black" points="702.11,-140.85 705.61,-150.85 709.11,-140.85 702.11,-140.85"/>
</g>
<!-- JwtStrategy -->
<g id="node8" class="node">
<title>JwtStrategy</title>
<ellipse fill="#fdb462" stroke="black" cx="460" cy="-104" rx="56.76" ry="18"/>
<text text-anchor="middle" x="460" y="-99.8" font-family="Times,serif" font-size="14.00">JwtStrategy</text>
</g>
<!-- JwtStrategy&#45;&gt;AuthModule -->
<g id="edge7" class="edge">
<title>JwtStrategy&#45;&gt;AuthModule</title>
<path fill="none" stroke="black" d="M460,-122.03C460,-138.4 460,-160 460,-160 460,-160 668.44,-160 668.44,-160"/>
<polygon fill="black" stroke="black" points="668.44,-163.5 678.44,-160 668.44,-156.5 668.44,-163.5"/>
</g>
<!-- RefreshTokenService -->
<g id="node9" class="node">
<title>RefreshTokenService</title>
<ellipse fill="#fdb462" stroke="black" cx="291" cy="-104" rx="94.88" ry="18"/>
<text text-anchor="middle" x="291" y="-99.8" font-family="Times,serif" font-size="14.00">RefreshTokenService</text>
</g>
<!-- RefreshTokenService&#45;&gt;AuthModule -->
<g id="edge8" class="edge">
<title>RefreshTokenService&#45;&gt;AuthModule</title>
<path fill="none" stroke="black" d="M291,-122.11C291,-141.34 291,-169 291,-169 291,-169 668.3,-169 668.3,-169"/>
<polygon fill="black" stroke="black" points="668.3,-172.5 678.3,-169 668.3,-165.5 668.3,-172.5"/>
</g>
<!-- ResponseService -->
<g id="node10" class="node">
<title>ResponseService</title>
<ellipse fill="#fdb462" stroke="black" cx="101" cy="-104" rx="77" ry="18"/>
<text text-anchor="middle" x="101" y="-99.8" font-family="Times,serif" font-size="14.00">ResponseService</text>
</g>
<!-- ResponseService&#45;&gt;AuthModule -->
<g id="edge9" class="edge">
<title>ResponseService&#45;&gt;AuthModule</title>
<path fill="none" stroke="black" d="M101,-122.29C101,-144.21 101,-178 101,-178 101,-178 668.33,-178 668.33,-178"/>
<polygon fill="black" stroke="black" points="668.33,-181.5 678.33,-178 668.33,-174.5 668.33,-181.5"/>
</g>
</g>
</svg>
