<?xml version="1.0" encoding="UTF-8" standalone="no"?>
<!DOCTYPE svg PUBLIC "-//W3C//DTD SVG 1.1//EN"
 "http://www.w3.org/Graphics/SVG/1.1/DTD/svg11.dtd">
<!-- Generated by graphviz version 2.47.0 (20210316.0004)
 -->
<!-- Title: dependencies Pages: 1 -->
<svg width="884pt" height="284pt"
 viewBox="0.00 0.00 884.00 284.00" xmlns="http://www.w3.org/2000/svg" xmlns:xlink="http://www.w3.org/1999/xlink">
<g id="graph0" class="graph" transform="scale(1 1) rotate(0) translate(4 280)">
<title>dependencies</title>
<polygon fill="white" stroke="transparent" points="-4,4 -4,-280 880,-280 880,4 -4,4"/>
<text text-anchor="start" x="417.01" y="-42.4" font-family="Times-12" font-weight="bold" font-size="14.00">Legend</text>
<polygon fill="#ffffb3" stroke="transparent" points="204,-10 204,-30 224,-30 224,-10 204,-10"/>
<text text-anchor="start" x="227.63" y="-15.4" font-family="Times-12" font-size="14.00"> &#160;Declarations</text>
<polygon fill="#8dd3c7" stroke="transparent" points="317,-10 317,-30 337,-30 337,-10 317,-10"/>
<text text-anchor="start" x="340.73" y="-15.4" font-family="Times-12" font-size="14.00"> &#160;Module</text>
<polygon fill="#80b1d3" stroke="transparent" points="403,-10 403,-30 423,-30 423,-10 403,-10"/>
<text text-anchor="start" x="426.78" y="-15.4" font-family="Times-12" font-size="14.00"> &#160;Bootstrap</text>
<polygon fill="#fdb462" stroke="transparent" points="500,-10 500,-30 520,-30 520,-10 500,-10"/>
<text text-anchor="start" x="523.67" y="-15.4" font-family="Times-12" font-size="14.00"> &#160;Providers</text>
<polygon fill="#fb8072" stroke="transparent" points="596,-10 596,-30 616,-30 616,-10 596,-10"/>
<text text-anchor="start" x="619.73" y="-15.4" font-family="Times-12" font-size="14.00"> &#160;Exports</text>
<g id="clust1" class="cluster">
<title>cluster_PaymentModule</title>
<polygon fill="none" stroke="black" stroke-dasharray="1,5" points="8,-70 8,-268 868,-268 868,-70 8,-70"/>
</g>
<g id="clust4" class="cluster">
<title>cluster_PaymentModule_exports</title>
<polygon fill="none" stroke="black" points="304,-208 304,-260 430,-260 430,-208 304,-208"/>
</g>
<g id="clust6" class="cluster">
<title>cluster_PaymentModule_providers</title>
<polygon fill="none" stroke="black" points="138,-78 138,-130 860,-130 860,-78 138,-78"/>
</g>
<g id="clust3" class="cluster">
<title>cluster_PaymentModule_imports</title>
<polygon fill="none" stroke="black" points="16,-78 16,-130 130,-130 130,-78 16,-78"/>
</g>
<!-- PrismaModule -->
<g id="node1" class="node">
<title>PrismaModule</title>
<polygon fill="#8dd3c7" stroke="black" points="122.43,-122 119.43,-126 98.43,-126 95.43,-122 23.57,-122 23.57,-86 122.43,-86 122.43,-122"/>
<text text-anchor="middle" x="73" y="-99.8" font-family="Times,serif" font-size="14.00">PrismaModule</text>
</g>
<!-- PaymentModule -->
<g id="node2" class="node">
<title>PaymentModule</title>
<polygon fill="#8dd3c7" stroke="black" points="421.04,-187 418.04,-191 397.04,-191 394.04,-187 312.96,-187 312.96,-151 421.04,-151 421.04,-187"/>
<text text-anchor="middle" x="367" y="-164.8" font-family="Times,serif" font-size="14.00">PaymentModule</text>
</g>
<!-- PrismaModule&#45;&gt;PaymentModule -->
<g id="edge1" class="edge">
<title>PrismaModule&#45;&gt;PaymentModule</title>
<path fill="none" stroke="black" d="M73,-122.28C73,-143.32 73,-175 73,-175 73,-175 302.73,-175 302.73,-175"/>
<polygon fill="black" stroke="black" points="302.73,-178.5 312.73,-175 302.73,-171.5 302.73,-178.5"/>
</g>
<!-- PaymentService  -->
<g id="node3" class="node">
<title>PaymentService </title>
<polygon fill="#fb8072" stroke="black" points="422.47,-252 311.53,-252 311.53,-216 422.47,-216 422.47,-252"/>
<text text-anchor="middle" x="367" y="-229.8" font-family="Times,serif" font-size="14.00">PaymentService </text>
</g>
<!-- PaymentModule&#45;&gt;PaymentService  -->
<g id="edge2" class="edge">
<title>PaymentModule&#45;&gt;PaymentService </title>
<path fill="none" stroke="black" stroke-dasharray="5,2" d="M367,-187.11C367,-187.11 367,-205.99 367,-205.99"/>
<polygon fill="black" stroke="black" points="363.5,-205.99 367,-215.99 370.5,-205.99 363.5,-205.99"/>
</g>
<!-- PaymentProcessorFactory -->
<g id="node4" class="node">
<title>PaymentProcessorFactory</title>
<ellipse fill="#fdb462" stroke="black" cx="740" cy="-104" rx="111.74" ry="18"/>
<text text-anchor="middle" x="740" y="-99.8" font-family="Times,serif" font-size="14.00">PaymentProcessorFactory</text>
</g>
<!-- PaymentProcessorFactory&#45;&gt;PaymentModule -->
<g id="edge3" class="edge">
<title>PaymentProcessorFactory&#45;&gt;PaymentModule</title>
<path fill="none" stroke="black" d="M740,-122.28C740,-143.32 740,-175 740,-175 740,-175 431.24,-175 431.24,-175"/>
<polygon fill="black" stroke="black" points="431.24,-171.5 421.24,-175 431.24,-178.5 431.24,-171.5"/>
</g>
<!-- PaymentService -->
<g id="node5" class="node">
<title>PaymentService</title>
<ellipse fill="#fdb462" stroke="black" cx="536" cy="-104" rx="73.57" ry="18"/>
<text text-anchor="middle" x="536" y="-99.8" font-family="Times,serif" font-size="14.00">PaymentService</text>
</g>
<!-- PaymentService&#45;&gt;PaymentModule -->
<g id="edge4" class="edge">
<title>PaymentService&#45;&gt;PaymentModule</title>
<path fill="none" stroke="black" d="M536,-122.02C536,-139.37 536,-163 536,-163 536,-163 431.4,-163 431.4,-163"/>
<polygon fill="black" stroke="black" points="431.4,-159.5 421.4,-163 431.4,-166.5 431.4,-159.5"/>
</g>
<!-- ResponseService -->
<g id="node6" class="node">
<title>ResponseService</title>
<ellipse fill="#fdb462" stroke="black" cx="367" cy="-104" rx="77" ry="18"/>
<text text-anchor="middle" x="367" y="-99.8" font-family="Times,serif" font-size="14.00">ResponseService</text>
</g>
<!-- ResponseService&#45;&gt;PaymentModule -->
<g id="edge5" class="edge">
<title>ResponseService&#45;&gt;PaymentModule</title>
<path fill="none" stroke="black" d="M367,-122.11C367,-122.11 367,-140.99 367,-140.99"/>
<polygon fill="black" stroke="black" points="363.5,-140.99 367,-150.99 370.5,-140.99 363.5,-140.99"/>
</g>
<!-- StripeService -->
<g id="node7" class="node">
<title>StripeService</title>
<ellipse fill="#fdb462" stroke="black" cx="209" cy="-104" rx="63.12" ry="18"/>
<text text-anchor="middle" x="209" y="-99.8" font-family="Times,serif" font-size="14.00">StripeService</text>
</g>
<!-- StripeService&#45;&gt;PaymentModule -->
<g id="edge6" class="edge">
<title>StripeService&#45;&gt;PaymentModule</title>
<path fill="none" stroke="black" d="M209,-122.02C209,-139.37 209,-163 209,-163 209,-163 302.63,-163 302.63,-163"/>
<polygon fill="black" stroke="black" points="302.63,-166.5 312.63,-163 302.63,-159.5 302.63,-166.5"/>
</g>
</g>
</svg>
