<?xml version="1.0" encoding="UTF-8" standalone="no"?>
<!DOCTYPE svg PUBLIC "-//W3C//DTD SVG 1.1//EN"
 "http://www.w3.org/Graphics/SVG/1.1/DTD/svg11.dtd">
<!-- Generated by graphviz version 2.47.0 (20210316.0004)
 -->
<!-- Title: dependencies Pages: 1 -->
<svg width="884pt" height="284pt"
 viewBox="0.00 0.00 884.00 284.00" xmlns="http://www.w3.org/2000/svg" xmlns:xlink="http://www.w3.org/1999/xlink">
<g id="graph0" class="graph" transform="scale(1 1) rotate(0) translate(4 280)">
<title>dependencies</title>
<polygon fill="white" stroke="transparent" points="-4,4 -4,-280 880,-280 880,4 -4,4"/>
<text text-anchor="start" x="417.01" y="-42.4" font-family="Times-12" font-weight="bold" font-size="14.00">Legend</text>
<polygon fill="#ffffb3" stroke="transparent" points="204,-10 204,-30 224,-30 224,-10 204,-10"/>
<text text-anchor="start" x="227.63" y="-15.4" font-family="Times-12" font-size="14.00"> &#160;Declarations</text>
<polygon fill="#8dd3c7" stroke="transparent" points="317,-10 317,-30 337,-30 337,-10 317,-10"/>
<text text-anchor="start" x="340.73" y="-15.4" font-family="Times-12" font-size="14.00"> &#160;Module</text>
<polygon fill="#80b1d3" stroke="transparent" points="403,-10 403,-30 423,-30 423,-10 403,-10"/>
<text text-anchor="start" x="426.78" y="-15.4" font-family="Times-12" font-size="14.00"> &#160;Bootstrap</text>
<polygon fill="#fdb462" stroke="transparent" points="500,-10 500,-30 520,-30 520,-10 500,-10"/>
<text text-anchor="start" x="523.67" y="-15.4" font-family="Times-12" font-size="14.00"> &#160;Providers</text>
<polygon fill="#fb8072" stroke="transparent" points="596,-10 596,-30 616,-30 616,-10 596,-10"/>
<text text-anchor="start" x="619.73" y="-15.4" font-family="Times-12" font-size="14.00"> &#160;Exports</text>
<g id="clust1" class="cluster">
<title>cluster_PaymentModule</title>
<polygon fill="none" stroke="black" stroke-dasharray="1,5" points="8,-70 8,-268 868,-268 868,-70 8,-70"/>
</g>
<g id="clust4" class="cluster">
<title>cluster_PaymentModule_exports</title>
<polygon fill="none" stroke="black" points="351,-208 351,-260 477,-260 477,-208 351,-208"/>
</g>
<g id="clust3" class="cluster">
<title>cluster_PaymentModule_imports</title>
<polygon fill="none" stroke="black" points="746,-78 746,-130 860,-130 860,-78 746,-78"/>
</g>
<g id="clust6" class="cluster">
<title>cluster_PaymentModule_providers</title>
<polygon fill="none" stroke="black" points="16,-78 16,-130 738,-130 738,-78 16,-78"/>
</g>
<!-- PrismaModule -->
<g id="node1" class="node">
<title>PrismaModule</title>
<polygon fill="#8dd3c7" stroke="black" points="852.43,-122 849.43,-126 828.43,-126 825.43,-122 753.57,-122 753.57,-86 852.43,-86 852.43,-122"/>
<text text-anchor="middle" x="803" y="-99.8" font-family="Times,serif" font-size="14.00">PrismaModule</text>
</g>
<!-- PaymentModule -->
<g id="node2" class="node">
<title>PaymentModule</title>
<polygon fill="#8dd3c7" stroke="black" points="468.04,-187 465.04,-191 444.04,-191 441.04,-187 359.96,-187 359.96,-151 468.04,-151 468.04,-187"/>
<text text-anchor="middle" x="414" y="-164.8" font-family="Times,serif" font-size="14.00">PaymentModule</text>
</g>
<!-- PrismaModule&#45;&gt;PaymentModule -->
<g id="edge1" class="edge">
<title>PrismaModule&#45;&gt;PaymentModule</title>
<path fill="none" stroke="black" d="M803,-122.28C803,-143.32 803,-175 803,-175 803,-175 478.09,-175 478.09,-175"/>
<polygon fill="black" stroke="black" points="478.09,-171.5 468.09,-175 478.09,-178.5 478.09,-171.5"/>
</g>
<!-- PaymentService  -->
<g id="node3" class="node">
<title>PaymentService </title>
<polygon fill="#fb8072" stroke="black" points="469.47,-252 358.53,-252 358.53,-216 469.47,-216 469.47,-252"/>
<text text-anchor="middle" x="414" y="-229.8" font-family="Times,serif" font-size="14.00">PaymentService </text>
</g>
<!-- PaymentModule&#45;&gt;PaymentService  -->
<g id="edge2" class="edge">
<title>PaymentModule&#45;&gt;PaymentService </title>
<path fill="none" stroke="black" stroke-dasharray="5,2" d="M414,-187.11C414,-187.11 414,-205.99 414,-205.99"/>
<polygon fill="black" stroke="black" points="410.5,-205.99 414,-215.99 417.5,-205.99 410.5,-205.99"/>
</g>
<!-- PaymentProcessorFactory -->
<g id="node4" class="node">
<title>PaymentProcessorFactory</title>
<ellipse fill="#fdb462" stroke="black" cx="618" cy="-104" rx="111.74" ry="18"/>
<text text-anchor="middle" x="618" y="-99.8" font-family="Times,serif" font-size="14.00">PaymentProcessorFactory</text>
</g>
<!-- PaymentProcessorFactory&#45;&gt;PaymentModule -->
<g id="edge3" class="edge">
<title>PaymentProcessorFactory&#45;&gt;PaymentModule</title>
<path fill="none" stroke="black" d="M618,-122.02C618,-139.37 618,-163 618,-163 618,-163 478.13,-163 478.13,-163"/>
<polygon fill="black" stroke="black" points="478.13,-159.5 468.13,-163 478.13,-166.5 478.13,-159.5"/>
</g>
<!-- PaymentService -->
<g id="node5" class="node">
<title>PaymentService</title>
<ellipse fill="#fdb462" stroke="black" cx="414" cy="-104" rx="73.57" ry="18"/>
<text text-anchor="middle" x="414" y="-99.8" font-family="Times,serif" font-size="14.00">PaymentService</text>
</g>
<!-- PaymentService&#45;&gt;PaymentModule -->
<g id="edge4" class="edge">
<title>PaymentService&#45;&gt;PaymentModule</title>
<path fill="none" stroke="black" d="M414,-122.11C414,-122.11 414,-140.99 414,-140.99"/>
<polygon fill="black" stroke="black" points="410.5,-140.99 414,-150.99 417.5,-140.99 410.5,-140.99"/>
</g>
<!-- ResponseService -->
<g id="node6" class="node">
<title>ResponseService</title>
<ellipse fill="#fdb462" stroke="black" cx="245" cy="-104" rx="77" ry="18"/>
<text text-anchor="middle" x="245" y="-99.8" font-family="Times,serif" font-size="14.00">ResponseService</text>
</g>
<!-- ResponseService&#45;&gt;PaymentModule -->
<g id="edge5" class="edge">
<title>ResponseService&#45;&gt;PaymentModule</title>
<path fill="none" stroke="black" d="M245,-122.02C245,-139.37 245,-163 245,-163 245,-163 349.6,-163 349.6,-163"/>
<polygon fill="black" stroke="black" points="349.6,-166.5 359.6,-163 349.6,-159.5 349.6,-166.5"/>
</g>
<!-- StripeService -->
<g id="node7" class="node">
<title>StripeService</title>
<ellipse fill="#fdb462" stroke="black" cx="87" cy="-104" rx="63.12" ry="18"/>
<text text-anchor="middle" x="87" y="-99.8" font-family="Times,serif" font-size="14.00">StripeService</text>
</g>
<!-- StripeService&#45;&gt;PaymentModule -->
<g id="edge6" class="edge">
<title>StripeService&#45;&gt;PaymentModule</title>
<path fill="none" stroke="black" d="M87,-122.28C87,-143.32 87,-175 87,-175 87,-175 349.64,-175 349.64,-175"/>
<polygon fill="black" stroke="black" points="349.64,-178.5 359.64,-175 349.64,-171.5 349.64,-178.5"/>
</g>
</g>
</svg>
