<?xml version="1.0" encoding="UTF-8" standalone="no"?>
<!DOCTYPE svg PUBLIC "-//W3C//DTD SVG 1.1//EN"
 "http://www.w3.org/Graphics/SVG/1.1/DTD/svg11.dtd">
<!-- Generated by graphviz version 2.47.0 (20210316.0004)
 -->
<!-- Title: dependencies Pages: 1 -->
<svg width="542pt" height="211pt"
 viewBox="0.00 0.00 542.00 211.00" xmlns="http://www.w3.org/2000/svg" xmlns:xlink="http://www.w3.org/1999/xlink">
<g id="graph0" class="graph" transform="scale(1 1) rotate(0) translate(4 207)">
<title>dependencies</title>
<polygon fill="white" stroke="transparent" points="-4,4 -4,-207 538,-207 538,4 -4,4"/>
<text text-anchor="start" x="246.01" y="-42.4" font-family="Times-12" font-weight="bold" font-size="14.00">Legend</text>
<polygon fill="#ffffb3" stroke="transparent" points="33,-10 33,-30 53,-30 53,-10 33,-10"/>
<text text-anchor="start" x="56.63" y="-15.4" font-family="Times-12" font-size="14.00"> &#160;Declarations</text>
<polygon fill="#8dd3c7" stroke="transparent" points="146,-10 146,-30 166,-30 166,-10 146,-10"/>
<text text-anchor="start" x="169.73" y="-15.4" font-family="Times-12" font-size="14.00"> &#160;Module</text>
<polygon fill="#80b1d3" stroke="transparent" points="232,-10 232,-30 252,-30 252,-10 232,-10"/>
<text text-anchor="start" x="255.78" y="-15.4" font-family="Times-12" font-size="14.00"> &#160;Bootstrap</text>
<polygon fill="#fdb462" stroke="transparent" points="329,-10 329,-30 349,-30 349,-10 329,-10"/>
<text text-anchor="start" x="352.67" y="-15.4" font-family="Times-12" font-size="14.00"> &#160;Providers</text>
<polygon fill="#fb8072" stroke="transparent" points="425,-10 425,-30 445,-30 445,-10 425,-10"/>
<text text-anchor="start" x="448.73" y="-15.4" font-family="Times-12" font-size="14.00"> &#160;Exports</text>
<g id="clust1" class="cluster">
<title>cluster_PaymentModeModule</title>
<polygon fill="none" stroke="black" stroke-dasharray="1,5" points="8,-70 8,-195 526,-195 526,-70 8,-70"/>
</g>
<g id="clust3" class="cluster">
<title>cluster_PaymentModeModule_imports</title>
<polygon fill="none" stroke="black" points="404,-78 404,-130 518,-130 518,-78 404,-78"/>
</g>
<g id="clust6" class="cluster">
<title>cluster_PaymentModeModule_providers</title>
<polygon fill="none" stroke="black" points="16,-78 16,-130 396,-130 396,-78 16,-78"/>
</g>
<!-- PrismaModule -->
<g id="node1" class="node">
<title>PrismaModule</title>
<polygon fill="#8dd3c7" stroke="black" points="510.43,-122 507.43,-126 486.43,-126 483.43,-122 411.57,-122 411.57,-86 510.43,-86 510.43,-122"/>
<text text-anchor="middle" x="461" y="-99.8" font-family="Times,serif" font-size="14.00">PrismaModule</text>
</g>
<!-- PaymentModeModule -->
<g id="node2" class="node">
<title>PaymentModeModule</title>
<polygon fill="#8dd3c7" stroke="black" points="362.7,-187 359.7,-191 338.7,-191 335.7,-187 221.3,-187 221.3,-151 362.7,-151 362.7,-187"/>
<text text-anchor="middle" x="292" y="-164.8" font-family="Times,serif" font-size="14.00">PaymentModeModule</text>
</g>
<!-- PrismaModule&#45;&gt;PaymentModeModule -->
<g id="edge1" class="edge">
<title>PrismaModule&#45;&gt;PaymentModeModule</title>
<path fill="none" stroke="black" d="M461,-122.11C461,-141.34 461,-169 461,-169 461,-169 372.69,-169 372.69,-169"/>
<polygon fill="black" stroke="black" points="372.69,-165.5 362.69,-169 372.69,-172.5 372.69,-165.5"/>
</g>
<!-- PaymentModeService -->
<g id="node3" class="node">
<title>PaymentModeService</title>
<ellipse fill="#fdb462" stroke="black" cx="292" cy="-104" rx="96.13" ry="18"/>
<text text-anchor="middle" x="292" y="-99.8" font-family="Times,serif" font-size="14.00">PaymentModeService</text>
</g>
<!-- PaymentModeService&#45;&gt;PaymentModeModule -->
<g id="edge2" class="edge">
<title>PaymentModeService&#45;&gt;PaymentModeModule</title>
<path fill="none" stroke="black" d="M292,-122.11C292,-122.11 292,-140.99 292,-140.99"/>
<polygon fill="black" stroke="black" points="288.5,-140.99 292,-150.99 295.5,-140.99 288.5,-140.99"/>
</g>
<!-- ResponseService -->
<g id="node4" class="node">
<title>ResponseService</title>
<ellipse fill="#fdb462" stroke="black" cx="101" cy="-104" rx="77" ry="18"/>
<text text-anchor="middle" x="101" y="-99.8" font-family="Times,serif" font-size="14.00">ResponseService</text>
</g>
<!-- ResponseService&#45;&gt;PaymentModeModule -->
<g id="edge3" class="edge">
<title>ResponseService&#45;&gt;PaymentModeModule</title>
<path fill="none" stroke="black" d="M101,-122.11C101,-141.34 101,-169 101,-169 101,-169 211.15,-169 211.15,-169"/>
<polygon fill="black" stroke="black" points="211.15,-172.5 221.15,-169 211.15,-165.5 211.15,-172.5"/>
</g>
</g>
</svg>
