<?xml version="1.0" encoding="UTF-8" standalone="no"?>
<!DOCTYPE svg PUBLIC "-//W3C//DTD SVG 1.1//EN"
 "http://www.w3.org/Graphics/SVG/1.1/DTD/svg11.dtd">
<!-- Generated by graphviz version 2.47.0 (20210316.0004)
 -->
<!-- Title: dependencies Pages: 1 -->
<svg width="718pt" height="284pt"
 viewBox="0.00 0.00 718.00 284.00" xmlns="http://www.w3.org/2000/svg" xmlns:xlink="http://www.w3.org/1999/xlink">
<g id="graph0" class="graph" transform="scale(1 1) rotate(0) translate(4 280)">
<title>dependencies</title>
<polygon fill="white" stroke="transparent" points="-4,4 -4,-280 714,-280 714,4 -4,4"/>
<text text-anchor="start" x="334.01" y="-42.4" font-family="Times-12" font-weight="bold" font-size="14.00">Legend</text>
<polygon fill="#ffffb3" stroke="transparent" points="121,-10 121,-30 141,-30 141,-10 121,-10"/>
<text text-anchor="start" x="144.63" y="-15.4" font-family="Times-12" font-size="14.00"> &#160;Declarations</text>
<polygon fill="#8dd3c7" stroke="transparent" points="234,-10 234,-30 254,-30 254,-10 234,-10"/>
<text text-anchor="start" x="257.73" y="-15.4" font-family="Times-12" font-size="14.00"> &#160;Module</text>
<polygon fill="#80b1d3" stroke="transparent" points="320,-10 320,-30 340,-30 340,-10 320,-10"/>
<text text-anchor="start" x="343.78" y="-15.4" font-family="Times-12" font-size="14.00"> &#160;Bootstrap</text>
<polygon fill="#fdb462" stroke="transparent" points="417,-10 417,-30 437,-30 437,-10 417,-10"/>
<text text-anchor="start" x="440.67" y="-15.4" font-family="Times-12" font-size="14.00"> &#160;Providers</text>
<polygon fill="#fb8072" stroke="transparent" points="513,-10 513,-30 533,-30 533,-10 513,-10"/>
<text text-anchor="start" x="536.73" y="-15.4" font-family="Times-12" font-size="14.00"> &#160;Exports</text>
<g id="clust1" class="cluster">
<title>cluster_ValidationModule</title>
<polygon fill="none" stroke="black" stroke-dasharray="1,5" points="8,-70 8,-268 702,-268 702,-70 8,-70"/>
</g>
<g id="clust6" class="cluster">
<title>cluster_ValidationModule_providers</title>
<polygon fill="none" stroke="black" points="16,-78 16,-130 694,-130 694,-78 16,-78"/>
</g>
<g id="clust4" class="cluster">
<title>cluster_ValidationModule_exports</title>
<polygon fill="none" stroke="black" points="158,-208 158,-260 564,-260 564,-208 158,-208"/>
</g>
<!-- ExceptionService  -->
<g id="node1" class="node">
<title>ExceptionService </title>
<polygon fill="#fb8072" stroke="black" points="556.24,-252 437.76,-252 437.76,-216 556.24,-216 556.24,-252"/>
<text text-anchor="middle" x="497" y="-229.8" font-family="Times,serif" font-size="14.00">ExceptionService </text>
</g>
<!-- ResponseService  -->
<g id="node2" class="node">
<title>ResponseService </title>
<polygon fill="#fb8072" stroke="black" points="419.63,-252 304.37,-252 304.37,-216 419.63,-216 419.63,-252"/>
<text text-anchor="middle" x="362" y="-229.8" font-family="Times,serif" font-size="14.00">ResponseService </text>
</g>
<!-- ValidationService  -->
<g id="node3" class="node">
<title>ValidationService </title>
<polygon fill="#fb8072" stroke="black" points="286.08,-252 165.92,-252 165.92,-216 286.08,-216 286.08,-252"/>
<text text-anchor="middle" x="226" y="-229.8" font-family="Times,serif" font-size="14.00">ValidationService </text>
</g>
<!-- ValidationModule -->
<g id="node4" class="node">
<title>ValidationModule</title>
<polygon fill="#8dd3c7" stroke="black" points="421.15,-187 418.15,-191 397.15,-191 394.15,-187 302.85,-187 302.85,-151 421.15,-151 421.15,-187"/>
<text text-anchor="middle" x="362" y="-164.8" font-family="Times,serif" font-size="14.00">ValidationModule</text>
</g>
<!-- ValidationModule&#45;&gt;ExceptionService  -->
<g id="edge1" class="edge">
<title>ValidationModule&#45;&gt;ExceptionService </title>
<path fill="none" stroke="black" stroke-dasharray="5,2" d="M421.2,-175C448.03,-175 473.85,-175 473.85,-175 473.85,-175 473.85,-205.98 473.85,-205.98"/>
<polygon fill="black" stroke="black" points="470.35,-205.98 473.85,-215.98 477.35,-205.98 470.35,-205.98"/>
</g>
<!-- ValidationModule&#45;&gt;ResponseService  -->
<g id="edge2" class="edge">
<title>ValidationModule&#45;&gt;ResponseService </title>
<path fill="none" stroke="black" stroke-dasharray="5,2" d="M362,-187.11C362,-187.11 362,-205.99 362,-205.99"/>
<polygon fill="black" stroke="black" points="358.5,-205.99 362,-215.99 365.5,-205.99 358.5,-205.99"/>
</g>
<!-- ValidationModule&#45;&gt;ValidationService  -->
<g id="edge3" class="edge">
<title>ValidationModule&#45;&gt;ValidationService </title>
<path fill="none" stroke="black" stroke-dasharray="5,2" d="M302.54,-175C273.68,-175 245.14,-175 245.14,-175 245.14,-175 245.14,-205.98 245.14,-205.98"/>
<polygon fill="black" stroke="black" points="241.64,-205.98 245.14,-215.98 248.64,-205.98 241.64,-205.98"/>
</g>
<!-- ExceptionService -->
<g id="node5" class="node">
<title>ExceptionService</title>
<ellipse fill="#fdb462" stroke="black" cx="607" cy="-104" rx="79.29" ry="18"/>
<text text-anchor="middle" x="607" y="-99.8" font-family="Times,serif" font-size="14.00">ExceptionService</text>
</g>
<!-- ExceptionService&#45;&gt;ValidationModule -->
<g id="edge4" class="edge">
<title>ExceptionService&#45;&gt;ValidationModule</title>
<path fill="none" stroke="black" d="M541.99,-114.28C541.99,-131.18 541.99,-163 541.99,-163 541.99,-163 431.43,-163 431.43,-163"/>
<polygon fill="black" stroke="black" points="431.43,-159.5 421.43,-163 431.43,-166.5 431.43,-159.5"/>
</g>
<!-- PrismaService -->
<g id="node6" class="node">
<title>PrismaService</title>
<ellipse fill="#fdb462" stroke="black" cx="443" cy="-104" rx="66.63" ry="18"/>
<text text-anchor="middle" x="443" y="-99.8" font-family="Times,serif" font-size="14.00">PrismaService</text>
</g>
<!-- PrismaService&#45;&gt;ValidationModule -->
<g id="edge5" class="edge">
<title>PrismaService&#45;&gt;ValidationModule</title>
<path fill="none" stroke="black" d="M398.76,-117.78C398.76,-117.78 398.76,-140.55 398.76,-140.55"/>
<polygon fill="black" stroke="black" points="395.26,-140.55 398.76,-150.55 402.26,-140.55 395.26,-140.55"/>
</g>
<!-- ResponseService -->
<g id="node7" class="node">
<title>ResponseService</title>
<ellipse fill="#fdb462" stroke="black" cx="281" cy="-104" rx="77" ry="18"/>
<text text-anchor="middle" x="281" y="-99.8" font-family="Times,serif" font-size="14.00">ResponseService</text>
</g>
<!-- ResponseService&#45;&gt;ValidationModule -->
<g id="edge6" class="edge">
<title>ResponseService&#45;&gt;ValidationModule</title>
<path fill="none" stroke="black" d="M330.34,-118.1C330.34,-118.1 330.34,-140.72 330.34,-140.72"/>
<polygon fill="black" stroke="black" points="326.84,-140.72 330.34,-150.72 333.84,-140.72 326.84,-140.72"/>
</g>
<!-- ValidationService -->
<g id="node8" class="node">
<title>ValidationService</title>
<ellipse fill="#fdb462" stroke="black" cx="105" cy="-104" rx="80.51" ry="18"/>
<text text-anchor="middle" x="105" y="-99.8" font-family="Times,serif" font-size="14.00">ValidationService</text>
</g>
<!-- ValidationService&#45;&gt;ValidationModule -->
<g id="edge7" class="edge">
<title>ValidationService&#45;&gt;ValidationModule</title>
<path fill="none" stroke="black" d="M175.73,-112.71C175.73,-129.12 175.73,-163 175.73,-163 175.73,-163 292.81,-163 292.81,-163"/>
<polygon fill="black" stroke="black" points="292.81,-166.5 302.81,-163 292.81,-159.5 292.81,-166.5"/>
</g>
</g>
</svg>
