<?xml version="1.0" encoding="UTF-8" standalone="no"?>
<!DOCTYPE svg PUBLIC "-//W3C//DTD SVG 1.1//EN"
 "http://www.w3.org/Graphics/SVG/1.1/DTD/svg11.dtd">
<!-- Generated by graphviz version 2.47.0 (20210316.0004)
 -->
<!-- Title: dependencies Pages: 1 -->
<svg width="664pt" height="211pt"
 viewBox="0.00 0.00 664.00 211.00" xmlns="http://www.w3.org/2000/svg" xmlns:xlink="http://www.w3.org/1999/xlink">
<g id="graph0" class="graph" transform="scale(1 1) rotate(0) translate(4 207)">
<title>dependencies</title>
<polygon fill="white" stroke="transparent" points="-4,4 -4,-207 660,-207 660,4 -4,4"/>
<text text-anchor="start" x="307.01" y="-42.4" font-family="Times-12" font-weight="bold" font-size="14.00">Legend</text>
<polygon fill="#ffffb3" stroke="transparent" points="94,-10 94,-30 114,-30 114,-10 94,-10"/>
<text text-anchor="start" x="117.63" y="-15.4" font-family="Times-12" font-size="14.00"> &#160;Declarations</text>
<polygon fill="#8dd3c7" stroke="transparent" points="207,-10 207,-30 227,-30 227,-10 207,-10"/>
<text text-anchor="start" x="230.73" y="-15.4" font-family="Times-12" font-size="14.00"> &#160;Module</text>
<polygon fill="#80b1d3" stroke="transparent" points="293,-10 293,-30 313,-30 313,-10 293,-10"/>
<text text-anchor="start" x="316.78" y="-15.4" font-family="Times-12" font-size="14.00"> &#160;Bootstrap</text>
<polygon fill="#fdb462" stroke="transparent" points="390,-10 390,-30 410,-30 410,-10 390,-10"/>
<text text-anchor="start" x="413.67" y="-15.4" font-family="Times-12" font-size="14.00"> &#160;Providers</text>
<polygon fill="#fb8072" stroke="transparent" points="486,-10 486,-30 506,-30 506,-10 486,-10"/>
<text text-anchor="start" x="509.73" y="-15.4" font-family="Times-12" font-size="14.00"> &#160;Exports</text>
<g id="clust1" class="cluster">
<title>cluster_DocumentModule</title>
<polygon fill="none" stroke="black" stroke-dasharray="1,5" points="8,-70 8,-195 648,-195 648,-70 8,-70"/>
</g>
<g id="clust3" class="cluster">
<title>cluster_DocumentModule_imports</title>
<polygon fill="none" stroke="black" points="524,-78 524,-130 640,-130 640,-78 524,-78"/>
</g>
<g id="clust6" class="cluster">
<title>cluster_DocumentModule_providers</title>
<polygon fill="none" stroke="black" points="16,-78 16,-130 516,-130 516,-78 16,-78"/>
</g>
<!-- UploadModule -->
<g id="node1" class="node">
<title>UploadModule</title>
<polygon fill="#8dd3c7" stroke="black" points="632.26,-122 629.26,-126 608.26,-126 605.26,-122 531.74,-122 531.74,-86 632.26,-86 632.26,-122"/>
<text text-anchor="middle" x="582" y="-99.8" font-family="Times,serif" font-size="14.00">UploadModule</text>
</g>
<!-- DocumentModule -->
<g id="node2" class="node">
<title>DocumentModule</title>
<polygon fill="#8dd3c7" stroke="black" points="403.87,-187 400.87,-191 379.87,-191 376.87,-187 286.13,-187 286.13,-151 403.87,-151 403.87,-187"/>
<text text-anchor="middle" x="345" y="-164.8" font-family="Times,serif" font-size="14.00">DocumentModule</text>
</g>
<!-- UploadModule&#45;&gt;DocumentModule -->
<g id="edge1" class="edge">
<title>UploadModule&#45;&gt;DocumentModule</title>
<path fill="none" stroke="black" d="M582,-122.11C582,-141.34 582,-169 582,-169 582,-169 413.89,-169 413.89,-169"/>
<polygon fill="black" stroke="black" points="413.89,-165.5 403.89,-169 413.89,-172.5 413.89,-165.5"/>
</g>
<!-- DocumentService -->
<g id="node3" class="node">
<title>DocumentService</title>
<ellipse fill="#fdb462" stroke="black" cx="428" cy="-104" rx="80.44" ry="18"/>
<text text-anchor="middle" x="428" y="-99.8" font-family="Times,serif" font-size="14.00">DocumentService</text>
</g>
<!-- DocumentService&#45;&gt;DocumentModule -->
<g id="edge2" class="edge">
<title>DocumentService&#45;&gt;DocumentModule</title>
<path fill="none" stroke="black" d="M375.86,-117.78C375.86,-117.78 375.86,-140.55 375.86,-140.55"/>
<polygon fill="black" stroke="black" points="372.36,-140.55 375.86,-150.55 379.36,-140.55 372.36,-140.55"/>
</g>
<!-- PrismaService -->
<g id="node4" class="node">
<title>PrismaService</title>
<ellipse fill="#fdb462" stroke="black" cx="263" cy="-104" rx="66.63" ry="18"/>
<text text-anchor="middle" x="263" y="-99.8" font-family="Times,serif" font-size="14.00">PrismaService</text>
</g>
<!-- PrismaService&#45;&gt;DocumentModule -->
<g id="edge3" class="edge">
<title>PrismaService&#45;&gt;DocumentModule</title>
<path fill="none" stroke="black" d="M307.94,-117.47C307.94,-117.47 307.94,-140.86 307.94,-140.86"/>
<polygon fill="black" stroke="black" points="304.44,-140.86 307.94,-150.86 311.44,-140.86 304.44,-140.86"/>
</g>
<!-- ResponseService -->
<g id="node5" class="node">
<title>ResponseService</title>
<ellipse fill="#fdb462" stroke="black" cx="101" cy="-104" rx="77" ry="18"/>
<text text-anchor="middle" x="101" y="-99.8" font-family="Times,serif" font-size="14.00">ResponseService</text>
</g>
<!-- ResponseService&#45;&gt;DocumentModule -->
<g id="edge4" class="edge">
<title>ResponseService&#45;&gt;DocumentModule</title>
<path fill="none" stroke="black" d="M101,-122.11C101,-141.34 101,-169 101,-169 101,-169 275.93,-169 275.93,-169"/>
<polygon fill="black" stroke="black" points="275.93,-172.5 285.93,-169 275.93,-165.5 275.93,-172.5"/>
</g>
</g>
</svg>
