<?xml version="1.0" encoding="UTF-8" standalone="no"?>
<!DOCTYPE svg PUBLIC "-//W3C//DTD SVG 1.1//EN"
 "http://www.w3.org/Graphics/SVG/1.1/DTD/svg11.dtd">
<!-- Generated by graphviz version 2.47.0 (20210316.0004)
 -->
<!-- Title: dependencies Pages: 1 -->
<svg width="3608pt" height="211pt"
 viewBox="0.00 0.00 3608.00 211.00" xmlns="http://www.w3.org/2000/svg" xmlns:xlink="http://www.w3.org/1999/xlink">
<g id="graph0" class="graph" transform="scale(1 1) rotate(0) translate(4 207)">
<title>dependencies</title>
<polygon fill="white" stroke="transparent" points="-4,4 -4,-207 3604,-207 3604,4 -4,4"/>
<text text-anchor="start" x="1779.01" y="-42.4" font-family="Times-12" font-weight="bold" font-size="14.00">Legend</text>
<polygon fill="#ffffb3" stroke="transparent" points="1566,-10 1566,-30 1586,-30 1586,-10 1566,-10"/>
<text text-anchor="start" x="1589.63" y="-15.4" font-family="Times-12" font-size="14.00"> &#160;Declarations</text>
<polygon fill="#8dd3c7" stroke="transparent" points="1679,-10 1679,-30 1699,-30 1699,-10 1679,-10"/>
<text text-anchor="start" x="1702.73" y="-15.4" font-family="Times-12" font-size="14.00"> &#160;Module</text>
<polygon fill="#80b1d3" stroke="transparent" points="1765,-10 1765,-30 1785,-30 1785,-10 1765,-10"/>
<text text-anchor="start" x="1788.78" y="-15.4" font-family="Times-12" font-size="14.00"> &#160;Bootstrap</text>
<polygon fill="#fdb462" stroke="transparent" points="1862,-10 1862,-30 1882,-30 1882,-10 1862,-10"/>
<text text-anchor="start" x="1885.67" y="-15.4" font-family="Times-12" font-size="14.00"> &#160;Providers</text>
<polygon fill="#fb8072" stroke="transparent" points="1958,-10 1958,-30 1978,-30 1978,-10 1958,-10"/>
<text text-anchor="start" x="1981.73" y="-15.4" font-family="Times-12" font-size="14.00"> &#160;Exports</text>
<g id="clust1" class="cluster">
<title>cluster_AppModule</title>
<polygon fill="none" stroke="black" stroke-dasharray="1,5" points="8,-70 8,-195 3592,-195 3592,-70 8,-70"/>
</g>
<g id="clust6" class="cluster">
<title>cluster_AppModule_providers</title>
<polygon fill="none" stroke="black" points="1387,-78 1387,-130 3584,-130 3584,-78 1387,-78"/>
</g>
<g id="clust3" class="cluster">
<title>cluster_AppModule_imports</title>
<polygon fill="none" stroke="black" points="16,-78 16,-130 1379,-130 1379,-78 16,-78"/>
</g>
<!-- AppointmentModule -->
<g id="node1" class="node">
<title>AppointmentModule</title>
<polygon fill="#8dd3c7" stroke="black" points="1370.93,-122 1367.93,-126 1346.93,-126 1343.93,-122 1237.07,-122 1237.07,-86 1370.93,-86 1370.93,-122"/>
<text text-anchor="middle" x="1304" y="-99.8" font-family="Times,serif" font-size="14.00">AppointmentModule</text>
</g>
<!-- AppModule -->
<g id="node12" class="node">
<title>AppModule</title>
<polygon fill="#8dd3c7" stroke="black" points="1595.66,-187 1592.66,-191 1571.66,-191 1568.66,-187 1512.34,-187 1512.34,-151 1595.66,-151 1595.66,-187"/>
<text text-anchor="middle" x="1554" y="-164.8" font-family="Times,serif" font-size="14.00">AppModule</text>
</g>
<!-- AppointmentModule&#45;&gt;AppModule -->
<g id="edge1" class="edge">
<title>AppointmentModule&#45;&gt;AppModule</title>
<path fill="none" stroke="black" d="M1304,-122.05C1304,-136.37 1304,-154 1304,-154 1304,-154 1502.16,-154 1502.16,-154"/>
<polygon fill="black" stroke="black" points="1502.16,-157.5 1512.16,-154 1502.16,-150.5 1502.16,-157.5"/>
</g>
<!-- AuthModule -->
<g id="node2" class="node">
<title>AuthModule</title>
<polygon fill="#8dd3c7" stroke="black" points="1219.55,-122 1216.55,-126 1195.55,-126 1192.55,-122 1132.45,-122 1132.45,-86 1219.55,-86 1219.55,-122"/>
<text text-anchor="middle" x="1176" y="-99.8" font-family="Times,serif" font-size="14.00">AuthModule</text>
</g>
<!-- AuthModule&#45;&gt;AppModule -->
<g id="edge2" class="edge">
<title>AuthModule&#45;&gt;AppModule</title>
<path fill="none" stroke="black" d="M1176,-122.24C1176,-137.57 1176,-157 1176,-157 1176,-157 1502.1,-157 1502.1,-157"/>
<polygon fill="black" stroke="black" points="1502.1,-160.5 1512.1,-157 1502.1,-153.5 1502.1,-160.5"/>
</g>
<!-- DocumentModule -->
<g id="node3" class="node">
<title>DocumentModule</title>
<polygon fill="#8dd3c7" stroke="black" points="1113.87,-122 1110.87,-126 1089.87,-126 1086.87,-122 996.13,-122 996.13,-86 1113.87,-86 1113.87,-122"/>
<text text-anchor="middle" x="1055" y="-99.8" font-family="Times,serif" font-size="14.00">DocumentModule</text>
</g>
<!-- DocumentModule&#45;&gt;AppModule -->
<g id="edge3" class="edge">
<title>DocumentModule&#45;&gt;AppModule</title>
<path fill="none" stroke="black" d="M1055,-122.03C1055,-138.4 1055,-160 1055,-160 1055,-160 1502.31,-160 1502.31,-160"/>
<polygon fill="black" stroke="black" points="1502.31,-163.5 1512.31,-160 1502.31,-156.5 1502.31,-163.5"/>
</g>
<!-- PaymentModeModule -->
<g id="node4" class="node">
<title>PaymentModeModule</title>
<polygon fill="#8dd3c7" stroke="black" points="977.7,-122 974.7,-126 953.7,-126 950.7,-122 836.3,-122 836.3,-86 977.7,-86 977.7,-122"/>
<text text-anchor="middle" x="907" y="-99.8" font-family="Times,serif" font-size="14.00">PaymentModeModule</text>
</g>
<!-- PaymentModeModule&#45;&gt;AppModule -->
<g id="edge4" class="edge">
<title>PaymentModeModule&#45;&gt;AppModule</title>
<path fill="none" stroke="black" d="M907,-122.02C907,-139.37 907,-163 907,-163 907,-163 1502.05,-163 1502.05,-163"/>
<polygon fill="black" stroke="black" points="1502.05,-166.5 1512.05,-163 1502.05,-159.5 1502.05,-166.5"/>
</g>
<!-- PaymentModule -->
<g id="node5" class="node">
<title>PaymentModule</title>
<polygon fill="#8dd3c7" stroke="black" points="818.04,-122 815.04,-126 794.04,-126 791.04,-122 709.96,-122 709.96,-86 818.04,-86 818.04,-122"/>
<text text-anchor="middle" x="764" y="-99.8" font-family="Times,serif" font-size="14.00">PaymentModule</text>
</g>
<!-- PaymentModule&#45;&gt;AppModule -->
<g id="edge5" class="edge">
<title>PaymentModule&#45;&gt;AppModule</title>
<path fill="none" stroke="black" d="M764,-122.22C764,-140.83 764,-167 764,-167 764,-167 1502.08,-167 1502.08,-167"/>
<polygon fill="black" stroke="black" points="1502.08,-170.5 1512.08,-167 1502.08,-163.5 1502.08,-170.5"/>
</g>
<!-- PrismaModule -->
<g id="node6" class="node">
<title>PrismaModule</title>
<polygon fill="#8dd3c7" stroke="black" points="692.43,-122 689.43,-126 668.43,-126 665.43,-122 593.57,-122 593.57,-86 692.43,-86 692.43,-122"/>
<text text-anchor="middle" x="643" y="-99.8" font-family="Times,serif" font-size="14.00">PrismaModule</text>
</g>
<!-- PrismaModule&#45;&gt;AppModule -->
<g id="edge6" class="edge">
<title>PrismaModule&#45;&gt;AppModule</title>
<path fill="none" stroke="black" d="M643,-122.11C643,-141.34 643,-169 643,-169 643,-169 1502.19,-169 1502.19,-169"/>
<polygon fill="black" stroke="black" points="1502.19,-172.5 1512.19,-169 1502.19,-165.5 1502.19,-172.5"/>
</g>
<!-- RedisModule -->
<g id="node7" class="node">
<title>RedisModule</title>
<polygon fill="#8dd3c7" stroke="black" points="575.94,-122 572.94,-126 551.94,-126 548.94,-122 484.06,-122 484.06,-86 575.94,-86 575.94,-122"/>
<text text-anchor="middle" x="530" y="-99.8" font-family="Times,serif" font-size="14.00">RedisModule</text>
</g>
<!-- RedisModule&#45;&gt;AppModule -->
<g id="edge7" class="edge">
<title>RedisModule&#45;&gt;AppModule</title>
<path fill="none" stroke="black" d="M530,-122.22C530,-142.37 530,-172 530,-172 530,-172 1502.27,-172 1502.27,-172"/>
<polygon fill="black" stroke="black" points="1502.27,-175.5 1512.27,-172 1502.27,-168.5 1502.27,-175.5"/>
</g>
<!-- SmsModule -->
<g id="node8" class="node">
<title>SmsModule</title>
<polygon fill="#8dd3c7" stroke="black" points="465.67,-122 462.67,-126 441.67,-126 438.67,-122 382.33,-122 382.33,-86 465.67,-86 465.67,-122"/>
<text text-anchor="middle" x="424" y="-99.8" font-family="Times,serif" font-size="14.00">SmsModule</text>
</g>
<!-- SmsModule&#45;&gt;AppModule -->
<g id="edge8" class="edge">
<title>SmsModule&#45;&gt;AppModule</title>
<path fill="none" stroke="black" d="M424,-122.28C424,-143.32 424,-175 424,-175 424,-175 1502.1,-175 1502.1,-175"/>
<polygon fill="black" stroke="black" points="1502.1,-178.5 1512.1,-175 1502.1,-171.5 1502.1,-178.5"/>
</g>
<!-- UploadModule -->
<g id="node9" class="node">
<title>UploadModule</title>
<polygon fill="#8dd3c7" stroke="black" points="364.26,-122 361.26,-126 340.26,-126 337.26,-122 263.74,-122 263.74,-86 364.26,-86 364.26,-122"/>
<text text-anchor="middle" x="314" y="-99.8" font-family="Times,serif" font-size="14.00">UploadModule</text>
</g>
<!-- UploadModule&#45;&gt;AppModule -->
<g id="edge9" class="edge">
<title>UploadModule&#45;&gt;AppModule</title>
<path fill="none" stroke="black" d="M314,-122.29C314,-144.21 314,-178 314,-178 314,-178 1502.03,-178 1502.03,-178"/>
<polygon fill="black" stroke="black" points="1502.03,-181.5 1512.03,-178 1502.03,-174.5 1502.03,-181.5"/>
</g>
<!-- UserModule -->
<g id="node10" class="node">
<title>UserModule</title>
<polygon fill="#8dd3c7" stroke="black" points="245.98,-122 242.98,-126 221.98,-126 218.98,-122 160.02,-122 160.02,-86 245.98,-86 245.98,-122"/>
<text text-anchor="middle" x="203" y="-99.8" font-family="Times,serif" font-size="14.00">UserModule</text>
</g>
<!-- UserModule&#45;&gt;AppModule -->
<g id="edge10" class="edge">
<title>UserModule&#45;&gt;AppModule</title>
<path fill="none" stroke="black" d="M203,-122.09C203,-145.13 203,-182 203,-182 203,-182 1502.09,-182 1502.09,-182"/>
<polygon fill="black" stroke="black" points="1502.09,-185.5 1512.09,-182 1502.09,-178.5 1502.09,-185.5"/>
</g>
<!-- ValidationModule -->
<g id="node11" class="node">
<title>ValidationModule</title>
<polygon fill="#8dd3c7" stroke="black" points="142.15,-122 139.15,-126 118.15,-126 115.15,-122 23.85,-122 23.85,-86 142.15,-86 142.15,-122"/>
<text text-anchor="middle" x="83" y="-99.8" font-family="Times,serif" font-size="14.00">ValidationModule</text>
</g>
<!-- ValidationModule&#45;&gt;AppModule -->
<g id="edge11" class="edge">
<title>ValidationModule&#45;&gt;AppModule</title>
<path fill="none" stroke="black" d="M83,-122.15C83,-145.76 83,-184 83,-184 83,-184 1501.95,-184 1501.95,-184"/>
<polygon fill="black" stroke="black" points="1501.95,-187.5 1511.95,-184 1501.95,-180.5 1501.95,-187.5"/>
</g>
<!-- AppService -->
<g id="node13" class="node">
<title>AppService</title>
<ellipse fill="#fdb462" stroke="black" cx="3519" cy="-104" rx="56.74" ry="18"/>
<text text-anchor="middle" x="3519" y="-99.8" font-family="Times,serif" font-size="14.00">AppService</text>
</g>
<!-- AppService&#45;&gt;AppModule -->
<g id="edge12" class="edge">
<title>AppService&#45;&gt;AppModule</title>
<path fill="none" stroke="black" d="M3519,-122.15C3519,-145.76 3519,-184 3519,-184 3519,-184 1605.95,-184 1605.95,-184"/>
<polygon fill="black" stroke="black" points="1605.95,-180.5 1595.95,-184 1605.95,-187.5 1605.95,-180.5"/>
</g>
<!-- AppointmentService -->
<g id="node14" class="node">
<title>AppointmentService</title>
<ellipse fill="#fdb462" stroke="black" cx="3353" cy="-104" rx="90.91" ry="18"/>
<text text-anchor="middle" x="3353" y="-99.8" font-family="Times,serif" font-size="14.00">AppointmentService</text>
</g>
<!-- AppointmentService&#45;&gt;AppModule -->
<g id="edge13" class="edge">
<title>AppointmentService&#45;&gt;AppModule</title>
<path fill="none" stroke="black" d="M3353,-122.09C3353,-145.13 3353,-182 3353,-182 3353,-182 1605.82,-182 1605.82,-182"/>
<polygon fill="black" stroke="black" points="1605.82,-178.5 1595.82,-182 1605.82,-185.5 1605.82,-178.5"/>
</g>
<!-- DocumentService -->
<g id="node15" class="node">
<title>DocumentService</title>
<ellipse fill="#fdb462" stroke="black" cx="3164" cy="-104" rx="80.44" ry="18"/>
<text text-anchor="middle" x="3164" y="-99.8" font-family="Times,serif" font-size="14.00">DocumentService</text>
</g>
<!-- DocumentService&#45;&gt;AppModule -->
<g id="edge14" class="edge">
<title>DocumentService&#45;&gt;AppModule</title>
<path fill="none" stroke="black" d="M3164,-122.29C3164,-144.21 3164,-178 3164,-178 3164,-178 1605.83,-178 1605.83,-178"/>
<polygon fill="black" stroke="black" points="1605.83,-174.5 1595.83,-178 1605.83,-181.5 1605.83,-174.5"/>
</g>
<!-- ExceptionService -->
<g id="node16" class="node">
<title>ExceptionService</title>
<ellipse fill="#fdb462" stroke="black" cx="2987" cy="-104" rx="79.29" ry="18"/>
<text text-anchor="middle" x="2987" y="-99.8" font-family="Times,serif" font-size="14.00">ExceptionService</text>
</g>
<!-- ExceptionService&#45;&gt;AppModule -->
<g id="edge15" class="edge">
<title>ExceptionService&#45;&gt;AppModule</title>
<path fill="none" stroke="black" d="M2987,-122.28C2987,-143.32 2987,-175 2987,-175 2987,-175 1605.73,-175 1605.73,-175"/>
<polygon fill="black" stroke="black" points="1605.73,-171.5 1595.73,-175 1605.73,-178.5 1605.73,-171.5"/>
</g>
<!-- FirebaseAdminService -->
<g id="node17" class="node">
<title>FirebaseAdminService</title>
<ellipse fill="#fdb462" stroke="black" cx="2790" cy="-104" rx="99.55" ry="18"/>
<text text-anchor="middle" x="2790" y="-99.8" font-family="Times,serif" font-size="14.00">FirebaseAdminService</text>
</g>
<!-- FirebaseAdminService&#45;&gt;AppModule -->
<g id="edge16" class="edge">
<title>FirebaseAdminService&#45;&gt;AppModule</title>
<path fill="none" stroke="black" d="M2790,-122.22C2790,-142.37 2790,-172 2790,-172 2790,-172 1605.83,-172 1605.83,-172"/>
<polygon fill="black" stroke="black" points="1605.83,-168.5 1595.83,-172 1605.83,-175.5 1605.83,-168.5"/>
</g>
<!-- PaymentModeService -->
<g id="node18" class="node">
<title>PaymentModeService</title>
<ellipse fill="#fdb462" stroke="black" cx="2576" cy="-104" rx="96.13" ry="18"/>
<text text-anchor="middle" x="2576" y="-99.8" font-family="Times,serif" font-size="14.00">PaymentModeService</text>
</g>
<!-- PaymentModeService&#45;&gt;AppModule -->
<g id="edge17" class="edge">
<title>PaymentModeService&#45;&gt;AppModule</title>
<path fill="none" stroke="black" d="M2576,-122.11C2576,-141.34 2576,-169 2576,-169 2576,-169 1605.97,-169 1605.97,-169"/>
<polygon fill="black" stroke="black" points="1605.97,-165.5 1595.97,-169 1605.97,-172.5 1605.97,-165.5"/>
</g>
<!-- PrismaService -->
<g id="node19" class="node">
<title>PrismaService</title>
<ellipse fill="#fdb462" stroke="black" cx="2395" cy="-104" rx="66.63" ry="18"/>
<text text-anchor="middle" x="2395" y="-99.8" font-family="Times,serif" font-size="14.00">PrismaService</text>
</g>
<!-- PrismaService&#45;&gt;AppModule -->
<g id="edge18" class="edge">
<title>PrismaService&#45;&gt;AppModule</title>
<path fill="none" stroke="black" d="M2395,-122.22C2395,-140.83 2395,-167 2395,-167 2395,-167 1605.71,-167 1605.71,-167"/>
<polygon fill="black" stroke="black" points="1605.71,-163.5 1595.71,-167 1605.71,-170.5 1605.71,-163.5"/>
</g>
<!-- RedisService -->
<g id="node20" class="node">
<title>RedisService</title>
<ellipse fill="#fdb462" stroke="black" cx="2248" cy="-104" rx="61.97" ry="18"/>
<text text-anchor="middle" x="2248" y="-99.8" font-family="Times,serif" font-size="14.00">RedisService</text>
</g>
<!-- RedisService&#45;&gt;AppModule -->
<g id="edge19" class="edge">
<title>RedisService&#45;&gt;AppModule</title>
<path fill="none" stroke="black" d="M2248,-122.02C2248,-139.37 2248,-163 2248,-163 2248,-163 1605.85,-163 1605.85,-163"/>
<polygon fill="black" stroke="black" points="1605.85,-159.5 1595.85,-163 1605.85,-166.5 1605.85,-159.5"/>
</g>
<!-- ResponseService -->
<g id="node21" class="node">
<title>ResponseService</title>
<ellipse fill="#fdb462" stroke="black" cx="2091" cy="-104" rx="77" ry="18"/>
<text text-anchor="middle" x="2091" y="-99.8" font-family="Times,serif" font-size="14.00">ResponseService</text>
</g>
<!-- ResponseService&#45;&gt;AppModule -->
<g id="edge20" class="edge">
<title>ResponseService&#45;&gt;AppModule</title>
<path fill="none" stroke="black" d="M2091,-122.03C2091,-138.4 2091,-160 2091,-160 2091,-160 1605.69,-160 1605.69,-160"/>
<polygon fill="black" stroke="black" points="1605.69,-156.5 1595.69,-160 1605.69,-163.5 1605.69,-156.5"/>
</g>
<!-- TwilioService -->
<g id="node22" class="node">
<title>TwilioService</title>
<ellipse fill="#fdb462" stroke="black" cx="1930" cy="-104" rx="65.99" ry="18"/>
<text text-anchor="middle" x="1930" y="-99.8" font-family="Times,serif" font-size="14.00">TwilioService</text>
</g>
<!-- TwilioService&#45;&gt;AppModule -->
<g id="edge21" class="edge">
<title>TwilioService&#45;&gt;AppModule</title>
<path fill="none" stroke="black" d="M1930,-122.24C1930,-137.57 1930,-157 1930,-157 1930,-157 1605.68,-157 1605.68,-157"/>
<polygon fill="black" stroke="black" points="1605.68,-153.5 1595.68,-157 1605.68,-160.5 1605.68,-153.5"/>
</g>
<!-- UploadService -->
<g id="node23" class="node">
<title>UploadService</title>
<ellipse fill="#fdb462" stroke="black" cx="1778" cy="-104" rx="68.34" ry="18"/>
<text text-anchor="middle" x="1778" y="-99.8" font-family="Times,serif" font-size="14.00">UploadService</text>
</g>
<!-- UploadService&#45;&gt;AppModule -->
<g id="edge22" class="edge">
<title>UploadService&#45;&gt;AppModule</title>
<path fill="none" stroke="black" d="M1778,-122.05C1778,-136.37 1778,-154 1778,-154 1778,-154 1605.87,-154 1605.87,-154"/>
<polygon fill="black" stroke="black" points="1605.87,-150.5 1595.87,-154 1605.87,-157.5 1605.87,-150.5"/>
</g>
<!-- UserService -->
<g id="node24" class="node">
<title>UserService</title>
<ellipse fill="#fdb462" stroke="black" cx="1633" cy="-104" rx="58.44" ry="18"/>
<text text-anchor="middle" x="1633" y="-99.8" font-family="Times,serif" font-size="14.00">UserService</text>
</g>
<!-- UserService&#45;&gt;AppModule -->
<g id="edge23" class="edge">
<title>UserService&#45;&gt;AppModule</title>
<path fill="none" stroke="black" d="M1585.3,-114.44C1585.3,-114.44 1585.3,-140.97 1585.3,-140.97"/>
<polygon fill="black" stroke="black" points="1581.8,-140.97 1585.3,-150.97 1588.8,-140.97 1581.8,-140.97"/>
</g>
<!-- ValidationService -->
<g id="node25" class="node">
<title>ValidationService</title>
<ellipse fill="#fdb462" stroke="black" cx="1476" cy="-104" rx="80.51" ry="18"/>
<text text-anchor="middle" x="1476" y="-99.8" font-family="Times,serif" font-size="14.00">ValidationService</text>
</g>
<!-- ValidationService&#45;&gt;AppModule -->
<g id="edge24" class="edge">
<title>ValidationService&#45;&gt;AppModule</title>
<path fill="none" stroke="black" d="M1534.46,-116.53C1534.46,-116.53 1534.46,-140.85 1534.46,-140.85"/>
<polygon fill="black" stroke="black" points="1530.96,-140.85 1534.46,-150.85 1537.96,-140.85 1530.96,-140.85"/>
</g>
</g>
</svg>
