<?xml version="1.0" encoding="UTF-8" standalone="no"?>
<!DOCTYPE svg PUBLIC "-//W3C//DTD SVG 1.1//EN"
 "http://www.w3.org/Graphics/SVG/1.1/DTD/svg11.dtd">
<!-- Generated by graphviz version 2.47.0 (20210316.0004)
 -->
<!-- Title: dependencies Pages: 1 -->
<svg width="504pt" height="284pt"
 viewBox="0.00 0.00 504.00 284.00" xmlns="http://www.w3.org/2000/svg" xmlns:xlink="http://www.w3.org/1999/xlink">
<g id="graph0" class="graph" transform="scale(1 1) rotate(0) translate(4 280)">
<title>dependencies</title>
<polygon fill="white" stroke="transparent" points="-4,4 -4,-280 500,-280 500,4 -4,4"/>
<text text-anchor="start" x="227.01" y="-42.4" font-family="Times-12" font-weight="bold" font-size="14.00">Legend</text>
<polygon fill="#ffffb3" stroke="transparent" points="14,-10 14,-30 34,-30 34,-10 14,-10"/>
<text text-anchor="start" x="37.63" y="-15.4" font-family="Times-12" font-size="14.00"> &#160;Declarations</text>
<polygon fill="#8dd3c7" stroke="transparent" points="127,-10 127,-30 147,-30 147,-10 127,-10"/>
<text text-anchor="start" x="150.73" y="-15.4" font-family="Times-12" font-size="14.00"> &#160;Module</text>
<polygon fill="#80b1d3" stroke="transparent" points="213,-10 213,-30 233,-30 233,-10 213,-10"/>
<text text-anchor="start" x="236.78" y="-15.4" font-family="Times-12" font-size="14.00"> &#160;Bootstrap</text>
<polygon fill="#fdb462" stroke="transparent" points="310,-10 310,-30 330,-30 330,-10 310,-10"/>
<text text-anchor="start" x="333.67" y="-15.4" font-family="Times-12" font-size="14.00"> &#160;Providers</text>
<polygon fill="#fb8072" stroke="transparent" points="406,-10 406,-30 426,-30 426,-10 406,-10"/>
<text text-anchor="start" x="429.73" y="-15.4" font-family="Times-12" font-size="14.00"> &#160;Exports</text>
<g id="clust1" class="cluster">
<title>cluster_CacheModule</title>
<polygon fill="none" stroke="black" stroke-dasharray="1,5" points="110,-70 110,-268 386,-268 386,-70 110,-70"/>
</g>
<g id="clust3" class="cluster">
<title>cluster_CacheModule_imports</title>
<polygon fill="none" stroke="black" points="270,-78 270,-130 378,-130 378,-78 270,-78"/>
</g>
<g id="clust4" class="cluster">
<title>cluster_CacheModule_exports</title>
<polygon fill="none" stroke="black" points="200,-208 200,-260 312,-260 312,-208 200,-208"/>
</g>
<g id="clust6" class="cluster">
<title>cluster_CacheModule_providers</title>
<polygon fill="none" stroke="black" points="118,-78 118,-130 262,-130 262,-78 118,-78"/>
</g>
<!-- RedisModule -->
<g id="node1" class="node">
<title>RedisModule</title>
<polygon fill="#8dd3c7" stroke="black" points="369.94,-122 366.94,-126 345.94,-126 342.94,-122 278.06,-122 278.06,-86 369.94,-86 369.94,-122"/>
<text text-anchor="middle" x="324" y="-99.8" font-family="Times,serif" font-size="14.00">RedisModule</text>
</g>
<!-- CacheModule -->
<g id="node2" class="node">
<title>CacheModule</title>
<polygon fill="#8dd3c7" stroke="black" points="303.03,-187 300.03,-191 279.03,-191 276.03,-187 208.97,-187 208.97,-151 303.03,-151 303.03,-187"/>
<text text-anchor="middle" x="256" y="-164.8" font-family="Times,serif" font-size="14.00">CacheModule</text>
</g>
<!-- RedisModule&#45;&gt;CacheModule -->
<g id="edge1" class="edge">
<title>RedisModule&#45;&gt;CacheModule</title>
<path fill="none" stroke="black" d="M290.77,-122.11C290.77,-122.11 290.77,-140.99 290.77,-140.99"/>
<polygon fill="black" stroke="black" points="287.27,-140.99 290.77,-150.99 294.27,-140.99 287.27,-140.99"/>
</g>
<!-- CacheService  -->
<g id="node3" class="node">
<title>CacheService </title>
<polygon fill="#fb8072" stroke="black" points="304.46,-252 207.54,-252 207.54,-216 304.46,-216 304.46,-252"/>
<text text-anchor="middle" x="256" y="-229.8" font-family="Times,serif" font-size="14.00">CacheService </text>
</g>
<!-- CacheModule&#45;&gt;CacheService  -->
<g id="edge2" class="edge">
<title>CacheModule&#45;&gt;CacheService </title>
<path fill="none" stroke="black" stroke-dasharray="5,2" d="M256,-187.11C256,-187.11 256,-205.99 256,-205.99"/>
<polygon fill="black" stroke="black" points="252.5,-205.99 256,-215.99 259.5,-205.99 252.5,-205.99"/>
</g>
<!-- CacheService -->
<g id="node4" class="node">
<title>CacheService</title>
<ellipse fill="#fdb462" stroke="black" cx="190" cy="-104" rx="64.24" ry="18"/>
<text text-anchor="middle" x="190" y="-99.8" font-family="Times,serif" font-size="14.00">CacheService</text>
</g>
<!-- CacheService&#45;&gt;CacheModule -->
<g id="edge3" class="edge">
<title>CacheService&#45;&gt;CacheModule</title>
<path fill="none" stroke="black" d="M231.43,-117.78C231.43,-117.78 231.43,-140.55 231.43,-140.55"/>
<polygon fill="black" stroke="black" points="227.93,-140.55 231.43,-150.55 234.93,-140.55 227.93,-140.55"/>
</g>
</g>
</svg>
