<?xml version="1.0" encoding="UTF-8" standalone="no"?>
<!DOCTYPE svg PUBLIC "-//W3C//DTD SVG 1.1//EN"
 "http://www.w3.org/Graphics/SVG/1.1/DTD/svg11.dtd">
<!-- Generated by graphviz version 2.47.0 (20210316.0004)
 -->
<!-- Title: dependencies Pages: 1 -->
<svg width="4268pt" height="382pt"
 viewBox="0.00 0.00 4268.00 382.00" xmlns="http://www.w3.org/2000/svg" xmlns:xlink="http://www.w3.org/1999/xlink">
<g id="graph0" class="graph" transform="scale(1 1) rotate(0) translate(4 378)">
<title>dependencies</title>
<polygon fill="white" stroke="transparent" points="-4,4 -4,-378 4264,-378 4264,4 -4,4"/>
<text text-anchor="start" x="2109.01" y="-42.4" font-family="Times-12" font-weight="bold" font-size="14.00">Legend</text>
<polygon fill="#ffffb3" stroke="transparent" points="1896,-10 1896,-30 1916,-30 1916,-10 1896,-10"/>
<text text-anchor="start" x="1919.63" y="-15.4" font-family="Times-12" font-size="14.00"> &#160;Declarations</text>
<polygon fill="#8dd3c7" stroke="transparent" points="2009,-10 2009,-30 2029,-30 2029,-10 2009,-10"/>
<text text-anchor="start" x="2032.73" y="-15.4" font-family="Times-12" font-size="14.00"> &#160;Module</text>
<polygon fill="#80b1d3" stroke="transparent" points="2095,-10 2095,-30 2115,-30 2115,-10 2095,-10"/>
<text text-anchor="start" x="2118.78" y="-15.4" font-family="Times-12" font-size="14.00"> &#160;Bootstrap</text>
<polygon fill="#fdb462" stroke="transparent" points="2192,-10 2192,-30 2212,-30 2212,-10 2192,-10"/>
<text text-anchor="start" x="2215.67" y="-15.4" font-family="Times-12" font-size="14.00"> &#160;Providers</text>
<polygon fill="#fb8072" stroke="transparent" points="2288,-10 2288,-30 2308,-30 2308,-10 2288,-10"/>
<text text-anchor="start" x="2311.73" y="-15.4" font-family="Times-12" font-size="14.00"> &#160;Exports</text>
<g id="clust1" class="cluster">
<title>cluster_AppModule</title>
<polygon fill="none" stroke="black" stroke-dasharray="1,5" points="836,-70 836,-366 3048,-366 3048,-70 836,-70"/>
</g>
<g id="clust3" class="cluster">
<title>cluster_AppModule_imports</title>
<polygon fill="none" stroke="black" points="1307,-154 1307,-358 2022,-358 2022,-154 1307,-154"/>
</g>
<g id="clust6" class="cluster">
<title>cluster_AppModule_providers</title>
<polygon fill="none" stroke="black" points="844,-78 844,-130 3040,-130 3040,-78 844,-78"/>
</g>
<g id="clust7" class="cluster">
<title>cluster_AppointmentModule</title>
<polygon fill="none" stroke="black" stroke-dasharray="1,5" points="3056,-298 3056,-366 3224,-366 3224,-298 3056,-298"/>
</g>
<g id="clust10" class="cluster">
<title>cluster_AppointmentModule_exports</title>
<polygon fill="none" stroke="black" points="3064,-306 3064,-358 3216,-358 3216,-306 3064,-306"/>
</g>
<g id="clust13" class="cluster">
<title>cluster_AuthModule</title>
<polygon fill="none" stroke="black" stroke-dasharray="1,5" points="8,-222 8,-290 828,-290 828,-222 8,-222"/>
</g>
<g id="clust16" class="cluster">
<title>cluster_AuthModule_exports</title>
<polygon fill="none" stroke="black" points="714,-230 714,-282 820,-282 820,-230 714,-230"/>
</g>
<g id="clust18" class="cluster">
<title>cluster_AuthModule_providers</title>
<polygon fill="none" stroke="black" points="16,-230 16,-282 706,-282 706,-230 16,-230"/>
</g>
<g id="clust19" class="cluster">
<title>cluster_CacheModule</title>
<polygon fill="none" stroke="black" stroke-dasharray="1,5" points="4092,-146 4092,-366 4252,-366 4252,-146 4092,-146"/>
</g>
<g id="clust22" class="cluster">
<title>cluster_CacheModule_exports</title>
<polygon fill="none" stroke="black" points="4108,-306 4108,-358 4220,-358 4220,-306 4108,-306"/>
</g>
<g id="clust24" class="cluster">
<title>cluster_CacheModule_providers</title>
<polygon fill="none" stroke="black" points="4100,-154 4100,-206 4244,-206 4244,-154 4100,-154"/>
</g>
<g id="clust37" class="cluster">
<title>cluster_PaymentModule</title>
<polygon fill="none" stroke="black" stroke-dasharray="1,5" points="128,-146 128,-214 828,-214 828,-146 128,-146"/>
</g>
<g id="clust40" class="cluster">
<title>cluster_PaymentModule_exports</title>
<polygon fill="none" stroke="black" points="694,-154 694,-206 820,-206 820,-154 694,-154"/>
</g>
<g id="clust42" class="cluster">
<title>cluster_PaymentModule_providers</title>
<polygon fill="none" stroke="black" points="136,-154 136,-206 686,-206 686,-154 136,-154"/>
</g>
<g id="clust43" class="cluster">
<title>cluster_PrismaModule</title>
<polygon fill="none" stroke="black" stroke-dasharray="1,5" points="3056,-222 3056,-290 3188,-290 3188,-222 3056,-222"/>
</g>
<g id="clust46" class="cluster">
<title>cluster_PrismaModule_exports</title>
<polygon fill="none" stroke="black" points="3064,-230 3064,-282 3180,-282 3180,-230 3064,-230"/>
</g>
<g id="clust49" class="cluster">
<title>cluster_RedisModule</title>
<polygon fill="none" stroke="black" stroke-dasharray="1,5" points="3196,-222 3196,-290 3322,-290 3322,-222 3196,-222"/>
</g>
<g id="clust52" class="cluster">
<title>cluster_RedisModule_exports</title>
<polygon fill="none" stroke="black" points="3204,-230 3204,-282 3314,-282 3314,-230 3204,-230"/>
</g>
<g id="clust55" class="cluster">
<title>cluster_SmsModule</title>
<polygon fill="none" stroke="black" stroke-dasharray="1,5" points="3056,-70 3056,-138 3274,-138 3274,-70 3056,-70"/>
</g>
<g id="clust60" class="cluster">
<title>cluster_SmsModule_providers</title>
<polygon fill="none" stroke="black" points="3064,-78 3064,-130 3266,-130 3266,-78 3064,-78"/>
</g>
<g id="clust61" class="cluster">
<title>cluster_UploadModule</title>
<polygon fill="none" stroke="black" stroke-dasharray="1,5" points="3330,-222 3330,-290 3654,-290 3654,-222 3330,-222"/>
</g>
<g id="clust64" class="cluster">
<title>cluster_UploadModule_exports</title>
<polygon fill="none" stroke="black" points="3528,-230 3528,-282 3646,-282 3646,-230 3528,-230"/>
</g>
<g id="clust66" class="cluster">
<title>cluster_UploadModule_providers</title>
<polygon fill="none" stroke="black" points="3338,-230 3338,-282 3520,-282 3520,-230 3338,-230"/>
</g>
<g id="clust73" class="cluster">
<title>cluster_ValidationModule</title>
<polygon fill="none" stroke="black" stroke-dasharray="1,5" points="3662,-222 3662,-290 4084,-290 4084,-222 3662,-222"/>
</g>
<g id="clust76" class="cluster">
<title>cluster_ValidationModule_exports</title>
<polygon fill="none" stroke="black" points="3670,-230 3670,-282 4076,-282 4076,-230 3670,-230"/>
</g>
<!-- AppointmentModule -->
<g id="node1" class="node">
<title>AppointmentModule</title>
<polygon fill="#8dd3c7" stroke="black" points="1574.93,-274 1571.93,-278 1550.93,-278 1547.93,-274 1441.07,-274 1441.07,-238 1574.93,-238 1574.93,-274"/>
<text text-anchor="middle" x="1508" y="-251.8" font-family="Times,serif" font-size="14.00">AppointmentModule</text>
</g>
<!-- AppModule -->
<g id="node12" class="node">
<title>AppModule</title>
<polygon fill="#8dd3c7" stroke="black" points="2164.66,-350 2161.66,-354 2140.66,-354 2137.66,-350 2081.34,-350 2081.34,-314 2164.66,-314 2164.66,-350"/>
<text text-anchor="middle" x="2123" y="-327.8" font-family="Times,serif" font-size="14.00">AppModule</text>
</g>
<!-- AppointmentModule&#45;&gt;AppModule -->
<g id="edge1" class="edge">
<title>AppointmentModule&#45;&gt;AppModule</title>
<path fill="none" stroke="black" d="M1485.76,-274.11C1485.76,-283.9 1485.76,-294 1485.76,-294 1485.76,-294 2093.51,-294 2093.51,-294 2093.51,-294 2093.51,-303.89 2093.51,-303.89"/>
<polygon fill="black" stroke="black" points="2090.01,-303.89 2093.51,-313.89 2097.01,-303.89 2090.01,-303.89"/>
</g>
<!-- AppointmentService  -->
<g id="node26" class="node">
<title>AppointmentService </title>
<polygon fill="#fb8072" stroke="black" points="3207.86,-350 3072.14,-350 3072.14,-314 3207.86,-314 3207.86,-350"/>
<text text-anchor="middle" x="3140" y="-327.8" font-family="Times,serif" font-size="14.00">AppointmentService </text>
</g>
<!-- AppointmentModule&#45;&gt;AppointmentService  -->
<g id="edge26" class="edge">
<title>AppointmentModule&#45;&gt;AppointmentService </title>
<path fill="none" stroke="black" stroke-dasharray="5,2" d="M1530.24,-274.21C1530.24,-279.55 1530.24,-284 1530.24,-284 1530.24,-284 3122.25,-284 3122.25,-284 3122.25,-284 3122.25,-303.85 3122.25,-303.85"/>
<polygon fill="black" stroke="black" points="3118.75,-303.85 3122.25,-313.85 3125.75,-303.85 3118.75,-303.85"/>
</g>
<!-- AuthModule -->
<g id="node2" class="node">
<title>AuthModule</title>
<polygon fill="#8dd3c7" stroke="black" points="1688.55,-350 1685.55,-354 1664.55,-354 1661.55,-350 1601.45,-350 1601.45,-314 1688.55,-314 1688.55,-350"/>
<text text-anchor="middle" x="1645" y="-327.8" font-family="Times,serif" font-size="14.00">AuthModule</text>
</g>
<!-- AuthModule&#45;&gt;AppModule -->
<g id="edge2" class="edge">
<title>AuthModule&#45;&gt;AppModule</title>
<path fill="none" stroke="black" d="M1688.69,-347C1688.69,-347 2071.3,-347 2071.3,-347"/>
<polygon fill="black" stroke="black" points="2071.3,-350.5 2081.3,-347 2071.3,-343.5 2071.3,-350.5"/>
</g>
<!-- AuthService  -->
<g id="node27" class="node">
<title>AuthService </title>
<polygon fill="#fb8072" stroke="black" points="811.98,-274 722.02,-274 722.02,-238 811.98,-238 811.98,-274"/>
<text text-anchor="middle" x="767" y="-251.8" font-family="Times,serif" font-size="14.00">AuthService </text>
</g>
<!-- AuthModule&#45;&gt;AuthService  -->
<g id="edge32" class="edge">
<title>AuthModule&#45;&gt;AuthService </title>
<path fill="none" stroke="black" stroke-dasharray="5,2" d="M1601.16,-330C1423.56,-330 767,-330 767,-330 767,-330 767,-284.29 767,-284.29"/>
<polygon fill="black" stroke="black" points="770.5,-284.29 767,-274.29 763.5,-284.29 770.5,-284.29"/>
</g>
<!-- DocumentModule -->
<g id="node3" class="node">
<title>DocumentModule</title>
<polygon fill="#8dd3c7" stroke="black" points="1869.87,-274 1866.87,-278 1845.87,-278 1842.87,-274 1752.13,-274 1752.13,-238 1869.87,-238 1869.87,-274"/>
<text text-anchor="middle" x="1811" y="-251.8" font-family="Times,serif" font-size="14.00">DocumentModule</text>
</g>
<!-- DocumentModule&#45;&gt;AppModule -->
<g id="edge3" class="edge">
<title>DocumentModule&#45;&gt;AppModule</title>
<path fill="none" stroke="black" d="M1811,-274.15C1811,-297.76 1811,-336 1811,-336 1811,-336 2071.25,-336 2071.25,-336"/>
<polygon fill="black" stroke="black" points="2071.25,-339.5 2081.25,-336 2071.25,-332.5 2071.25,-339.5"/>
</g>
<!-- PaymentModeModule -->
<g id="node4" class="node">
<title>PaymentModeModule</title>
<polygon fill="#8dd3c7" stroke="black" points="1733.7,-274 1730.7,-278 1709.7,-278 1706.7,-274 1592.3,-274 1592.3,-238 1733.7,-238 1733.7,-274"/>
<text text-anchor="middle" x="1663" y="-251.8" font-family="Times,serif" font-size="14.00">PaymentModeModule</text>
</g>
<!-- PaymentModeModule&#45;&gt;AppModule -->
<g id="edge4" class="edge">
<title>PaymentModeModule&#45;&gt;AppModule</title>
<path fill="none" stroke="black" d="M1711.19,-274.03C1711.19,-299.51 1711.19,-343 1711.19,-343 1711.19,-343 2071.25,-343 2071.25,-343"/>
<polygon fill="black" stroke="black" points="2071.25,-346.5 2081.25,-343 2071.25,-339.5 2071.25,-346.5"/>
</g>
<!-- PaymentModule -->
<g id="node5" class="node">
<title>PaymentModule</title>
<polygon fill="#8dd3c7" stroke="black" points="1423.04,-274 1420.04,-278 1399.04,-278 1396.04,-274 1314.96,-274 1314.96,-238 1423.04,-238 1423.04,-274"/>
<text text-anchor="middle" x="1369" y="-251.8" font-family="Times,serif" font-size="14.00">PaymentModule</text>
</g>
<!-- PaymentModule&#45;&gt;AppModule -->
<g id="edge5" class="edge">
<title>PaymentModule&#45;&gt;AppModule</title>
<path fill="none" stroke="black" d="M1369,-274.15C1369,-287.74 1369,-304 1369,-304 1369,-304 2087.34,-304 2087.34,-304 2087.34,-304 2087.34,-304.98 2087.34,-304.98"/>
<polygon fill="black" stroke="black" points="2083.84,-303.79 2087.34,-313.79 2090.84,-303.79 2083.84,-303.79"/>
</g>
<!-- PaymentService  -->
<g id="node35" class="node">
<title>PaymentService </title>
<polygon fill="#fb8072" stroke="black" points="812.47,-198 701.53,-198 701.53,-162 812.47,-162 812.47,-198"/>
<text text-anchor="middle" x="757" y="-175.8" font-family="Times,serif" font-size="14.00">PaymentService </text>
</g>
<!-- PaymentModule&#45;&gt;PaymentService  -->
<g id="edge49" class="edge">
<title>PaymentModule&#45;&gt;PaymentService </title>
<path fill="none" stroke="black" stroke-dasharray="5,2" d="M1322.49,-237.97C1322.49,-213.02 1322.49,-171 1322.49,-171 1322.49,-171 822.25,-171 822.25,-171"/>
<polygon fill="black" stroke="black" points="822.25,-167.5 812.25,-171 822.25,-174.5 822.25,-167.5"/>
</g>
<!-- PrismaModule -->
<g id="node6" class="node">
<title>PrismaModule</title>
<polygon fill="#8dd3c7" stroke="black" points="1548.43,-198 1545.43,-202 1524.43,-202 1521.43,-198 1449.57,-198 1449.57,-162 1548.43,-162 1548.43,-198"/>
<text text-anchor="middle" x="1499" y="-175.8" font-family="Times,serif" font-size="14.00">PrismaModule</text>
</g>
<!-- PrismaModule&#45;&gt;AppointmentModule -->
<g id="edge25" class="edge">
<title>PrismaModule&#45;&gt;AppointmentModule</title>
<path fill="none" stroke="black" d="M1466.19,-198.01C1466.19,-198.01 1466.19,-227.85 1466.19,-227.85"/>
<polygon fill="black" stroke="black" points="1462.69,-227.85 1466.19,-237.85 1469.69,-227.85 1462.69,-227.85"/>
</g>
<!-- PrismaModule&#45;&gt;AuthModule -->
<g id="edge29" class="edge">
<title>PrismaModule&#45;&gt;AuthModule</title>
<path fill="none" stroke="black" d="M1449.46,-189C1439.63,-189 1432.28,-189 1432.28,-189 1432.28,-189 1432.28,-322 1432.28,-322 1432.28,-322 1591.44,-322 1591.44,-322"/>
<polygon fill="black" stroke="black" points="1591.44,-325.5 1601.44,-322 1591.44,-318.5 1591.44,-325.5"/>
</g>
<!-- PrismaModule&#45;&gt;PaymentModeModule -->
<g id="edge45" class="edge">
<title>PrismaModule&#45;&gt;PaymentModeModule</title>
<path fill="none" stroke="black" d="M1482.59,-198.15C1482.59,-211.74 1482.59,-228 1482.59,-228 1482.59,-228 1615.37,-228 1615.37,-228 1615.37,-228 1615.37,-228.98 1615.37,-228.98"/>
<polygon fill="black" stroke="black" points="1611.87,-227.79 1615.37,-237.79 1618.87,-227.79 1611.87,-227.79"/>
</g>
<!-- PrismaModule&#45;&gt;PaymentModule -->
<g id="edge48" class="edge">
<title>PrismaModule&#45;&gt;PaymentModule</title>
<path fill="none" stroke="black" d="M1449.69,-180C1420.62,-180 1389.48,-180 1389.48,-180 1389.48,-180 1389.48,-227.99 1389.48,-227.99"/>
<polygon fill="black" stroke="black" points="1385.98,-227.99 1389.48,-237.99 1392.98,-227.99 1385.98,-227.99"/>
</g>
<!-- UserModule -->
<g id="node10" class="node">
<title>UserModule</title>
<polygon fill="#8dd3c7" stroke="black" points="1973.98,-274 1970.98,-278 1949.98,-278 1946.98,-274 1888.02,-274 1888.02,-238 1973.98,-238 1973.98,-274"/>
<text text-anchor="middle" x="1931" y="-251.8" font-family="Times,serif" font-size="14.00">UserModule</text>
</g>
<!-- PrismaModule&#45;&gt;UserModule -->
<g id="edge63" class="edge">
<title>PrismaModule&#45;&gt;UserModule</title>
<path fill="none" stroke="black" d="M1499,-198.15C1499,-210.27 1499,-224 1499,-224 1499,-224 1889.54,-224 1889.54,-224 1889.54,-224 1889.54,-227.76 1889.54,-227.76"/>
<polygon fill="black" stroke="black" points="1886.04,-227.76 1889.54,-237.76 1893.04,-227.76 1886.04,-227.76"/>
</g>
<!-- PrismaModule&#45;&gt;AppModule -->
<g id="edge6" class="edge">
<title>PrismaModule&#45;&gt;AppModule</title>
<path fill="none" stroke="black" d="M1515.41,-198.24C1515.41,-205.43 1515.41,-212 1515.41,-212 1515.41,-212 2124.37,-212 2124.37,-212 2124.37,-212 2124.37,-303.77 2124.37,-303.77"/>
<polygon fill="black" stroke="black" points="2120.87,-303.77 2124.37,-313.77 2127.87,-303.77 2120.87,-303.77"/>
</g>
<!-- PrismaService  -->
<g id="node39" class="node">
<title>PrismaService </title>
<polygon fill="#fb8072" stroke="black" points="3172.36,-274 3071.64,-274 3071.64,-238 3172.36,-238 3172.36,-274"/>
<text text-anchor="middle" x="3122" y="-251.8" font-family="Times,serif" font-size="14.00">PrismaService </text>
</g>
<!-- PrismaModule&#45;&gt;PrismaService  -->
<g id="edge54" class="edge">
<title>PrismaModule&#45;&gt;PrismaService </title>
<path fill="none" stroke="black" stroke-dasharray="5,2" d="M1531.81,-198.21C1531.81,-203.55 1531.81,-208 1531.81,-208 1531.81,-208 3105.68,-208 3105.68,-208 3105.68,-208 3105.68,-227.85 3105.68,-227.85"/>
<polygon fill="black" stroke="black" points="3102.18,-227.85 3105.68,-237.85 3109.18,-227.85 3102.18,-227.85"/>
</g>
<!-- RedisModule -->
<g id="node7" class="node">
<title>RedisModule</title>
<polygon fill="#8dd3c7" stroke="black" points="1877.94,-198 1874.94,-202 1853.94,-202 1850.94,-198 1786.06,-198 1786.06,-162 1877.94,-162 1877.94,-198"/>
<text text-anchor="middle" x="1832" y="-175.8" font-family="Times,serif" font-size="14.00">RedisModule</text>
</g>
<!-- RedisModule&#45;&gt;AppModule -->
<g id="edge7" class="edge">
<title>RedisModule&#45;&gt;AppModule</title>
<path fill="none" stroke="black" d="M1873.83,-198.03C1873.83,-238.3 1873.83,-332 1873.83,-332 1873.83,-332 2071.29,-332 2071.29,-332"/>
<polygon fill="black" stroke="black" points="2071.29,-335.5 2081.29,-332 2071.29,-328.5 2071.29,-335.5"/>
</g>
<!-- CacheModule -->
<g id="node32" class="node">
<title>CacheModule</title>
<polygon fill="#8dd3c7" stroke="black" points="4211.03,-274 4208.03,-278 4187.03,-278 4184.03,-274 4116.97,-274 4116.97,-238 4211.03,-238 4211.03,-274"/>
<text text-anchor="middle" x="4164" y="-251.8" font-family="Times,serif" font-size="14.00">CacheModule</text>
</g>
<!-- RedisModule&#45;&gt;CacheModule -->
<g id="edge38" class="edge">
<title>RedisModule&#45;&gt;CacheModule</title>
<path fill="none" stroke="black" d="M1842.05,-198.15C1842.05,-199.3 1842.05,-200 1842.05,-200 1842.05,-200 4148.24,-200 4148.24,-200 4148.24,-200 4148.24,-227.97 4148.24,-227.97"/>
<polygon fill="black" stroke="black" points="4144.75,-227.97 4148.24,-237.97 4151.75,-227.97 4144.75,-227.97"/>
</g>
<!-- RedisService  -->
<g id="node40" class="node">
<title>RedisService </title>
<polygon fill="#fb8072" stroke="black" points="3305.86,-274 3212.14,-274 3212.14,-238 3305.86,-238 3305.86,-274"/>
<text text-anchor="middle" x="3259" y="-251.8" font-family="Times,serif" font-size="14.00">RedisService </text>
</g>
<!-- RedisModule&#45;&gt;RedisService  -->
<g id="edge56" class="edge">
<title>RedisModule&#45;&gt;RedisService </title>
<path fill="none" stroke="black" stroke-dasharray="5,2" d="M1814.17,-198.06C1814.17,-202.49 1814.17,-206 1814.17,-206 1814.17,-206 3234.94,-206 3234.94,-206 3234.94,-206 3234.94,-227.95 3234.94,-227.95"/>
<polygon fill="black" stroke="black" points="3231.44,-227.95 3234.94,-237.95 3238.44,-227.95 3231.44,-227.95"/>
</g>
<!-- SmsModule -->
<g id="node8" class="node">
<title>SmsModule</title>
<polygon fill="#8dd3c7" stroke="black" points="1649.67,-198 1646.67,-202 1625.67,-202 1622.67,-198 1566.33,-198 1566.33,-162 1649.67,-162 1649.67,-198"/>
<text text-anchor="middle" x="1608" y="-175.8" font-family="Times,serif" font-size="14.00">SmsModule</text>
</g>
<!-- SmsModule&#45;&gt;AuthModule -->
<g id="edge30" class="edge">
<title>SmsModule&#45;&gt;AuthModule</title>
<path fill="none" stroke="black" d="M1583.56,-198.04C1583.56,-235.45 1583.56,-318 1583.56,-318 1583.56,-318 1591.33,-318 1591.33,-318"/>
<polygon fill="black" stroke="black" points="1591.33,-321.5 1601.33,-318 1591.33,-314.5 1591.33,-321.5"/>
</g>
<!-- SmsModule&#45;&gt;UserModule -->
<g id="edge64" class="edge">
<title>SmsModule&#45;&gt;UserModule</title>
<path fill="none" stroke="black" d="M1626.86,-198.06C1626.86,-209.44 1626.86,-222 1626.86,-222 1626.86,-222 1891.08,-222 1891.08,-222 1891.08,-222 1891.08,-227.81 1891.08,-227.81"/>
<polygon fill="black" stroke="black" points="1887.58,-227.81 1891.08,-237.81 1894.58,-227.81 1887.58,-227.81"/>
</g>
<!-- SmsModule&#45;&gt;AppModule -->
<g id="edge8" class="edge">
<title>SmsModule&#45;&gt;AppModule</title>
<path fill="none" stroke="black" d="M1638.35,-198.14C1638.35,-204.46 1638.35,-210 1638.35,-210 1638.35,-210 2130.54,-210 2130.54,-210 2130.54,-210 2130.54,-304 2130.54,-304"/>
<polygon fill="black" stroke="black" points="2127.04,-304 2130.54,-314 2134.04,-304 2127.04,-304"/>
</g>
<!-- UploadModule -->
<g id="node9" class="node">
<title>UploadModule</title>
<polygon fill="#8dd3c7" stroke="black" points="1768.26,-198 1765.26,-202 1744.26,-202 1741.26,-198 1667.74,-198 1667.74,-162 1768.26,-162 1768.26,-198"/>
<text text-anchor="middle" x="1718" y="-175.8" font-family="Times,serif" font-size="14.00">UploadModule</text>
</g>
<!-- UploadModule&#45;&gt;DocumentModule -->
<g id="edge41" class="edge">
<title>UploadModule&#45;&gt;DocumentModule</title>
<path fill="none" stroke="black" d="M1762.94,-198.01C1762.94,-198.01 1762.94,-227.85 1762.94,-227.85"/>
<polygon fill="black" stroke="black" points="1759.44,-227.85 1762.94,-237.85 1766.44,-227.85 1759.44,-227.85"/>
</g>
<!-- UploadModule&#45;&gt;AppModule -->
<g id="edge9" class="edge">
<title>UploadModule&#45;&gt;AppModule</title>
<path fill="none" stroke="black" d="M1742.83,-198.04C1742.83,-239.89 1742.83,-340 1742.83,-340 1742.83,-340 2071.23,-340 2071.23,-340"/>
<polygon fill="black" stroke="black" points="2071.23,-343.5 2081.23,-340 2071.23,-336.5 2071.23,-343.5"/>
</g>
<!-- UploadService  -->
<g id="node42" class="node">
<title>UploadService </title>
<polygon fill="#fb8072" stroke="black" points="3638.19,-274 3535.81,-274 3535.81,-238 3638.19,-238 3638.19,-274"/>
<text text-anchor="middle" x="3587" y="-251.8" font-family="Times,serif" font-size="14.00">UploadService </text>
</g>
<!-- UploadModule&#45;&gt;UploadService  -->
<g id="edge61" class="edge">
<title>UploadModule&#45;&gt;UploadService </title>
<path fill="none" stroke="black" stroke-dasharray="5,2" d="M1689.61,-198.17C1689.61,-200.45 1689.61,-202 1689.61,-202 1689.61,-202 3587,-202 3587,-202 3587,-202 3587,-227.72 3587,-227.72"/>
<polygon fill="black" stroke="black" points="3583.5,-227.72 3587,-237.72 3590.5,-227.72 3583.5,-227.72"/>
</g>
<!-- UserModule&#45;&gt;AuthModule -->
<g id="edge31" class="edge">
<title>UserModule&#45;&gt;AuthModule</title>
<path fill="none" stroke="black" d="M1931,-274.27C1931,-292.56 1931,-318 1931,-318 1931,-318 1698.75,-318 1698.75,-318"/>
<polygon fill="black" stroke="black" points="1698.75,-314.5 1688.75,-318 1698.75,-321.5 1698.75,-314.5"/>
</g>
<!-- UserModule&#45;&gt;AppModule -->
<g id="edge10" class="edge">
<title>UserModule&#45;&gt;AppModule</title>
<path fill="none" stroke="black" d="M1974,-262C2023.98,-262 2099.68,-262 2099.68,-262 2099.68,-262 2099.68,-303.97 2099.68,-303.97"/>
<polygon fill="black" stroke="black" points="2096.18,-303.97 2099.68,-313.97 2103.18,-303.97 2096.18,-303.97"/>
</g>
<!-- ValidationModule -->
<g id="node11" class="node">
<title>ValidationModule</title>
<polygon fill="#8dd3c7" stroke="black" points="2014.15,-198 2011.15,-202 1990.15,-202 1987.15,-198 1895.85,-198 1895.85,-162 2014.15,-162 2014.15,-198"/>
<text text-anchor="middle" x="1955" y="-175.8" font-family="Times,serif" font-size="14.00">ValidationModule</text>
</g>
<!-- ValidationModule&#45;&gt;AppModule -->
<g id="edge11" class="edge">
<title>ValidationModule&#45;&gt;AppModule</title>
<path fill="none" stroke="black" d="M1994.16,-198.07C1994.16,-236.94 1994.16,-325 1994.16,-325 1994.16,-325 2071.17,-325 2071.17,-325"/>
<polygon fill="black" stroke="black" points="2071.17,-328.5 2081.17,-325 2071.17,-321.5 2071.17,-328.5"/>
</g>
<!-- ExceptionService  -->
<g id="node44" class="node">
<title>ExceptionService </title>
<polygon fill="#fb8072" stroke="black" points="4068.24,-274 3949.76,-274 3949.76,-238 4068.24,-238 4068.24,-274"/>
<text text-anchor="middle" x="4009" y="-251.8" font-family="Times,serif" font-size="14.00">ExceptionService </text>
</g>
<!-- ValidationModule&#45;&gt;ExceptionService  -->
<g id="edge68" class="edge">
<title>ValidationModule&#45;&gt;ExceptionService </title>
<path fill="none" stroke="black" stroke-dasharray="5,2" d="M2014.26,-180C2351.03,-180 4009,-180 4009,-180 4009,-180 4009,-227.99 4009,-227.99"/>
<polygon fill="black" stroke="black" points="4005.5,-227.99 4009,-237.99 4012.5,-227.99 4005.5,-227.99"/>
</g>
<!-- ResponseService  -->
<g id="node45" class="node">
<title>ResponseService </title>
<polygon fill="#fb8072" stroke="black" points="3931.63,-274 3816.37,-274 3816.37,-238 3931.63,-238 3931.63,-274"/>
<text text-anchor="middle" x="3874" y="-251.8" font-family="Times,serif" font-size="14.00">ResponseService </text>
</g>
<!-- ValidationModule&#45;&gt;ResponseService  -->
<g id="edge69" class="edge">
<title>ValidationModule&#45;&gt;ResponseService </title>
<path fill="none" stroke="black" stroke-dasharray="5,2" d="M2014.27,-186C2337.6,-186 3874,-186 3874,-186 3874,-186 3874,-227.97 3874,-227.97"/>
<polygon fill="black" stroke="black" points="3870.5,-227.97 3874,-237.97 3877.5,-227.97 3870.5,-227.97"/>
</g>
<!-- ValidationService  -->
<g id="node46" class="node">
<title>ValidationService </title>
<polygon fill="#fb8072" stroke="black" points="3798.08,-274 3677.92,-274 3677.92,-238 3798.08,-238 3798.08,-274"/>
<text text-anchor="middle" x="3738" y="-251.8" font-family="Times,serif" font-size="14.00">ValidationService </text>
</g>
<!-- ValidationModule&#45;&gt;ValidationService  -->
<g id="edge70" class="edge">
<title>ValidationModule&#45;&gt;ValidationService </title>
<path fill="none" stroke="black" stroke-dasharray="5,2" d="M2014.32,-192C2323.7,-192 3738,-192 3738,-192 3738,-192 3738,-227.83 3738,-227.83"/>
<polygon fill="black" stroke="black" points="3734.5,-227.83 3738,-237.83 3741.5,-227.83 3734.5,-227.83"/>
</g>
<!-- AppService -->
<g id="node13" class="node">
<title>AppService</title>
<ellipse fill="#fdb462" stroke="black" cx="909" cy="-104" rx="56.74" ry="18"/>
<text text-anchor="middle" x="909" y="-99.8" font-family="Times,serif" font-size="14.00">AppService</text>
</g>
<!-- AppService&#45;&gt;AppModule -->
<g id="edge12" class="edge">
<title>AppService&#45;&gt;AppModule</title>
<path fill="none" stroke="black" d="M909,-122.06C909,-154.21 909,-218 909,-218 909,-218 2105.85,-218 2105.85,-218 2105.85,-218 2105.85,-303.94 2105.85,-303.94"/>
<polygon fill="black" stroke="black" points="2102.35,-303.94 2105.85,-313.94 2109.35,-303.94 2102.35,-303.94"/>
</g>
<!-- AppointmentService -->
<g id="node14" class="node">
<title>AppointmentService</title>
<ellipse fill="#fdb462" stroke="black" cx="1075" cy="-104" rx="90.91" ry="18"/>
<text text-anchor="middle" x="1075" y="-99.8" font-family="Times,serif" font-size="14.00">AppointmentService</text>
</g>
<!-- AppointmentService&#45;&gt;AppointmentModule -->
<g id="edge27" class="edge">
<title>AppointmentService&#45;&gt;AppointmentModule</title>
<path fill="none" stroke="black" d="M1105.32,-121.06C1105.32,-134.85 1105.32,-152 1105.32,-152 1105.32,-152 1444.12,-152 1444.12,-152 1444.12,-152 1444.12,-227.88 1444.12,-227.88"/>
<polygon fill="black" stroke="black" points="1440.62,-227.88 1444.12,-237.88 1447.62,-227.88 1440.62,-227.88"/>
</g>
<!-- AppointmentService&#45;&gt;AppModule -->
<g id="edge13" class="edge">
<title>AppointmentService&#45;&gt;AppModule</title>
<path fill="none" stroke="black" d="M1044.68,-121.01C1044.68,-152.34 1044.68,-216 1044.68,-216 1044.68,-216 2112.03,-216 2112.03,-216 2112.03,-216 2112.03,-303.88 2112.03,-303.88"/>
<polygon fill="black" stroke="black" points="2108.53,-303.87 2112.03,-313.88 2115.53,-303.88 2108.53,-303.87"/>
</g>
<!-- DocumentService -->
<g id="node15" class="node">
<title>DocumentService</title>
<ellipse fill="#fdb462" stroke="black" cx="1647" cy="-104" rx="80.44" ry="18"/>
<text text-anchor="middle" x="1647" y="-99.8" font-family="Times,serif" font-size="14.00">DocumentService</text>
</g>
<!-- DocumentService&#45;&gt;DocumentModule -->
<g id="edge42" class="edge">
<title>DocumentService&#45;&gt;DocumentModule</title>
<path fill="none" stroke="black" d="M1687.49,-119.61C1687.49,-135.87 1687.49,-159 1687.49,-159 1687.49,-159 1774.35,-159 1774.35,-159 1774.35,-159 1774.35,-227.76 1774.35,-227.76"/>
<polygon fill="black" stroke="black" points="1770.85,-227.76 1774.35,-237.76 1777.85,-227.76 1770.85,-227.76"/>
</g>
<!-- DocumentService&#45;&gt;AppModule -->
<g id="edge14" class="edge">
<title>DocumentService&#45;&gt;AppModule</title>
<path fill="none" stroke="black" d="M1707.35,-116.03C1707.35,-121.17 1707.35,-126 1707.35,-126 1707.35,-126 2142.88,-126 2142.88,-126 2142.88,-126 2142.88,-303.72 2142.88,-303.72"/>
<polygon fill="black" stroke="black" points="2139.38,-303.72 2142.88,-313.72 2146.38,-303.72 2139.38,-303.72"/>
</g>
<!-- ExceptionService -->
<g id="node16" class="node">
<title>ExceptionService</title>
<ellipse fill="#fdb462" stroke="black" cx="2581" cy="-104" rx="79.29" ry="18"/>
<text text-anchor="middle" x="2581" y="-99.8" font-family="Times,serif" font-size="14.00">ExceptionService</text>
</g>
<!-- ExceptionService&#45;&gt;ValidationModule -->
<g id="edge71" class="edge">
<title>ExceptionService&#45;&gt;ValidationModule</title>
<path fill="none" stroke="black" d="M2554.62,-121.3C2554.62,-142.03 2554.62,-174 2554.62,-174 2554.62,-174 2024.41,-174 2024.41,-174"/>
<polygon fill="black" stroke="black" points="2024.41,-170.5 2014.41,-174 2024.41,-177.5 2024.41,-170.5"/>
</g>
<!-- ExceptionService&#45;&gt;AppModule -->
<g id="edge15" class="edge">
<title>ExceptionService&#45;&gt;AppModule</title>
<path fill="none" stroke="black" d="M2607.38,-121.28C2607.38,-173.97 2607.38,-329 2607.38,-329 2607.38,-329 2174.72,-329 2174.72,-329"/>
<polygon fill="black" stroke="black" points="2174.72,-325.5 2164.72,-329 2174.72,-332.5 2174.72,-325.5"/>
</g>
<!-- FirebaseAdminService -->
<g id="node17" class="node">
<title>FirebaseAdminService</title>
<ellipse fill="#fdb462" stroke="black" cx="2778" cy="-104" rx="99.55" ry="18"/>
<text text-anchor="middle" x="2778" y="-99.8" font-family="Times,serif" font-size="14.00">FirebaseAdminService</text>
</g>
<!-- FirebaseAdminService&#45;&gt;AppModule -->
<g id="edge16" class="edge">
<title>FirebaseAdminService&#45;&gt;AppModule</title>
<path fill="none" stroke="black" d="M2778,-122.2C2778,-176.9 2778,-336 2778,-336 2778,-336 2174.97,-336 2174.97,-336"/>
<polygon fill="black" stroke="black" points="2174.97,-332.5 2164.97,-336 2174.97,-339.5 2174.97,-332.5"/>
</g>
<!-- PaymentModeService -->
<g id="node18" class="node">
<title>PaymentModeService</title>
<ellipse fill="#fdb462" stroke="black" cx="1452" cy="-104" rx="96.13" ry="18"/>
<text text-anchor="middle" x="1452" y="-99.8" font-family="Times,serif" font-size="14.00">PaymentModeService</text>
</g>
<!-- PaymentModeService&#45;&gt;PaymentModeModule -->
<g id="edge46" class="edge">
<title>PaymentModeService&#45;&gt;PaymentModeModule</title>
<path fill="none" stroke="black" d="M1499,-119.88C1499,-135.18 1499,-156 1499,-156 1499,-156 1658.73,-156 1658.73,-156 1658.73,-156 1658.73,-227.66 1658.73,-227.66"/>
<polygon fill="black" stroke="black" points="1655.23,-227.66 1658.73,-237.66 1662.23,-227.66 1655.23,-227.66"/>
</g>
<!-- PaymentModeService&#45;&gt;AppModule -->
<g id="edge17" class="edge">
<title>PaymentModeService&#45;&gt;AppModule</title>
<path fill="none" stroke="black" d="M1523.61,-116.36C1523.61,-123.86 1523.61,-132 1523.61,-132 1523.61,-132 2136.71,-132 2136.71,-132 2136.71,-132 2136.71,-303.9 2136.71,-303.9"/>
<polygon fill="black" stroke="black" points="2133.21,-303.9 2136.71,-313.9 2140.21,-303.9 2133.21,-303.9"/>
</g>
<!-- PrismaService -->
<g id="node19" class="node">
<title>PrismaService</title>
<ellipse fill="#fdb462" stroke="black" cx="1812" cy="-104" rx="66.63" ry="18"/>
<text text-anchor="middle" x="1812" y="-99.8" font-family="Times,serif" font-size="14.00">PrismaService</text>
</g>
<!-- PrismaService&#45;&gt;DocumentModule -->
<g id="edge43" class="edge">
<title>PrismaService&#45;&gt;DocumentModule</title>
<path fill="none" stroke="black" d="M1780.31,-119.98C1780.31,-119.98 1780.31,-227.9 1780.31,-227.9"/>
<polygon fill="black" stroke="black" points="1776.81,-227.9 1780.31,-237.9 1783.81,-227.9 1776.81,-227.9"/>
</g>
<!-- PrismaService&#45;&gt;PrismaModule -->
<g id="edge55" class="edge">
<title>PrismaService&#45;&gt;PrismaModule</title>
<path fill="none" stroke="black" d="M1756.78,-114.17C1756.78,-121.09 1756.78,-129 1756.78,-129 1756.78,-129 1474.39,-129 1474.39,-129 1474.39,-129 1474.39,-151.88 1474.39,-151.88"/>
<polygon fill="black" stroke="black" points="1470.89,-151.88 1474.39,-161.88 1477.89,-151.88 1470.89,-151.88"/>
</g>
<!-- PrismaService&#45;&gt;ValidationModule -->
<g id="edge72" class="edge">
<title>PrismaService&#45;&gt;ValidationModule</title>
<path fill="none" stroke="black" d="M1867.66,-94C1877.64,-94 1884.95,-94 1884.95,-94 1884.95,-94 1884.95,-174 1884.95,-174 1884.95,-174 1886.01,-174 1886.01,-174"/>
<polygon fill="black" stroke="black" points="1885.59,-177.5 1895.59,-174 1885.59,-170.5 1885.59,-177.5"/>
</g>
<!-- PrismaService&#45;&gt;AppModule -->
<g id="edge18" class="edge">
<title>PrismaService&#45;&gt;AppModule</title>
<path fill="none" stroke="black" d="M1878.12,-101C1880.5,-101 1881.88,-101 1881.88,-101 1881.88,-101 1881.88,-329 1881.88,-329 1881.88,-329 2071.28,-329 2071.28,-329"/>
<polygon fill="black" stroke="black" points="2071.28,-332.5 2081.28,-329 2071.28,-325.5 2071.28,-332.5"/>
</g>
<!-- RedisService -->
<g id="node20" class="node">
<title>RedisService</title>
<ellipse fill="#fdb462" stroke="black" cx="1959" cy="-104" rx="61.97" ry="18"/>
<text text-anchor="middle" x="1959" y="-99.8" font-family="Times,serif" font-size="14.00">RedisService</text>
</g>
<!-- RedisService&#45;&gt;RedisModule -->
<g id="edge57" class="edge">
<title>RedisService&#45;&gt;RedisModule</title>
<path fill="none" stroke="black" d="M1898.27,-108C1894.75,-108 1892.61,-108 1892.61,-108 1892.61,-108 1892.61,-186 1892.61,-186 1892.61,-186 1887.94,-186 1887.94,-186"/>
<polygon fill="black" stroke="black" points="1887.94,-182.5 1877.94,-186 1887.94,-189.5 1887.94,-182.5"/>
</g>
<!-- RedisService&#45;&gt;SmsModule -->
<g id="edge59" class="edge">
<title>RedisService&#45;&gt;SmsModule</title>
<path fill="none" stroke="black" d="M1975.22,-121.5C1975.22,-130.25 1975.22,-139 1975.22,-139 1975.22,-139 1587.55,-139 1587.55,-139 1587.55,-139 1587.55,-151.9 1587.55,-151.9"/>
<polygon fill="black" stroke="black" points="1584.05,-151.9 1587.55,-161.9 1591.05,-151.9 1584.05,-151.9"/>
</g>
<!-- RedisService&#45;&gt;UserModule -->
<g id="edge65" class="edge">
<title>RedisService&#45;&gt;UserModule</title>
<path fill="none" stroke="black" d="M1909.84,-115C1900.8,-115 1894.14,-115 1894.14,-115 1894.14,-115 1894.14,-227.86 1894.14,-227.86"/>
<polygon fill="black" stroke="black" points="1890.64,-227.86 1894.14,-237.86 1897.64,-227.86 1890.64,-227.86"/>
</g>
<!-- RedisService&#45;&gt;AppModule -->
<g id="edge19" class="edge">
<title>RedisService&#45;&gt;AppModule</title>
<path fill="none" stroke="black" d="M2021.19,-104C2026.49,-104 2029.88,-104 2029.88,-104 2029.88,-104 2029.88,-322 2029.88,-322 2029.88,-322 2071.07,-322 2071.07,-322"/>
<polygon fill="black" stroke="black" points="2071.07,-325.5 2081.07,-322 2071.07,-318.5 2071.07,-325.5"/>
</g>
<!-- ResponseService -->
<g id="node21" class="node">
<title>ResponseService</title>
<ellipse fill="#fdb462" stroke="black" cx="1261" cy="-104" rx="77" ry="18"/>
<text text-anchor="middle" x="1261" y="-99.8" font-family="Times,serif" font-size="14.00">ResponseService</text>
</g>
<!-- ResponseService&#45;&gt;AppointmentModule -->
<g id="edge28" class="edge">
<title>ResponseService&#45;&gt;AppointmentModule</title>
<path fill="none" stroke="black" d="M1328.3,-113.11C1328.3,-126.26 1328.3,-149 1328.3,-149 1328.3,-149 1446.95,-149 1446.95,-149 1446.95,-149 1446.95,-227.85 1446.95,-227.85"/>
<polygon fill="black" stroke="black" points="1443.45,-227.85 1446.95,-237.85 1450.45,-227.85 1443.45,-227.85"/>
</g>
<!-- ResponseService&#45;&gt;AuthModule -->
<g id="edge37" class="edge">
<title>ResponseService&#45;&gt;AuthModule</title>
<path fill="none" stroke="black" d="M1249.36,-122.17C1249.36,-175.19 1249.36,-326 1249.36,-326 1249.36,-326 1591.15,-326 1591.15,-326"/>
<polygon fill="black" stroke="black" points="1591.15,-329.5 1601.15,-326 1591.15,-322.5 1591.15,-329.5"/>
</g>
<!-- ResponseService&#45;&gt;DocumentModule -->
<g id="edge44" class="edge">
<title>ResponseService&#45;&gt;DocumentModule</title>
<path fill="none" stroke="black" d="M1332.18,-110.91C1332.18,-136.72 1332.18,-226 1332.18,-226 1332.18,-226 1757.5,-226 1757.5,-226 1757.5,-226 1757.5,-227.86 1757.5,-227.86"/>
<polygon fill="black" stroke="black" points="1754,-227.86 1757.5,-237.86 1761,-227.86 1754,-227.86"/>
</g>
<!-- ResponseService&#45;&gt;PaymentModeModule -->
<g id="edge47" class="edge">
<title>ResponseService&#45;&gt;PaymentModeModule</title>
<path fill="none" stroke="black" d="M1326.37,-113.89C1326.37,-143.59 1326.37,-230 1326.37,-230 1326.37,-230 1603.89,-230 1603.89,-230 1603.89,-230 1603.89,-230.79 1603.89,-230.79"/>
<polygon fill="black" stroke="black" points="1600.39,-227.94 1603.89,-237.94 1607.39,-227.94 1600.39,-227.94"/>
</g>
<!-- ResponseService&#45;&gt;PaymentModule -->
<g id="edge52" class="edge">
<title>ResponseService&#45;&gt;PaymentModule</title>
<path fill="none" stroke="black" d="M1324.43,-114.45C1324.43,-114.45 1324.43,-227.96 1324.43,-227.96"/>
<polygon fill="black" stroke="black" points="1320.93,-227.96 1324.43,-237.96 1327.93,-227.96 1320.93,-227.96"/>
</g>
<!-- ResponseService&#45;&gt;UserModule -->
<g id="edge66" class="edge">
<title>ResponseService&#45;&gt;UserModule</title>
<path fill="none" stroke="black" d="M1334.12,-109.91C1334.12,-133.55 1334.12,-220 1334.12,-220 1334.12,-220 1934.83,-220 1934.83,-220 1934.83,-220 1934.83,-227.58 1934.83,-227.58"/>
<polygon fill="black" stroke="black" points="1931.33,-227.58 1934.83,-237.58 1938.33,-227.58 1931.33,-227.58"/>
</g>
<!-- ResponseService&#45;&gt;ValidationModule -->
<g id="edge73" class="edge">
<title>ResponseService&#45;&gt;ValidationModule</title>
<path fill="none" stroke="black" d="M1330.24,-112.07C1330.24,-121.55 1330.24,-136 1330.24,-136 1330.24,-136 1936.12,-136 1936.12,-136 1936.12,-136 1936.12,-151.85 1936.12,-151.85"/>
<polygon fill="black" stroke="black" points="1932.62,-151.85 1936.12,-161.85 1939.62,-151.85 1932.62,-151.85"/>
</g>
<!-- ResponseService&#45;&gt;AppModule -->
<g id="edge20" class="edge">
<title>ResponseService&#45;&gt;AppModule</title>
<path fill="none" stroke="black" d="M1336.06,-108.18C1336.06,-128.27 1336.06,-214 1336.06,-214 1336.06,-214 2118.2,-214 2118.2,-214 2118.2,-214 2118.2,-303.82 2118.2,-303.82"/>
<polygon fill="black" stroke="black" points="2114.7,-303.82 2118.2,-313.82 2121.7,-303.82 2114.7,-303.82"/>
</g>
<!-- TwilioService -->
<g id="node22" class="node">
<title>TwilioService</title>
<ellipse fill="#fdb462" stroke="black" cx="2239" cy="-104" rx="65.99" ry="18"/>
<text text-anchor="middle" x="2239" y="-99.8" font-family="Times,serif" font-size="14.00">TwilioService</text>
</g>
<!-- TwilioService&#45;&gt;SmsModule -->
<g id="edge60" class="edge">
<title>TwilioService&#45;&gt;SmsModule</title>
<path fill="none" stroke="black" d="M2239,-122.11C2239,-131.9 2239,-142 2239,-142 2239,-142 1608.31,-142 1608.31,-142 1608.31,-142 1608.31,-151.89 1608.31,-151.89"/>
<polygon fill="black" stroke="black" points="1604.81,-151.89 1608.31,-161.89 1611.81,-151.89 1604.81,-151.89"/>
</g>
<!-- TwilioService&#45;&gt;AppModule -->
<g id="edge21" class="edge">
<title>TwilioService&#45;&gt;AppModule</title>
<path fill="none" stroke="black" d="M2173.07,-104C2165.27,-104 2160.02,-104 2160.02,-104 2160.02,-104 2160.02,-303.73 2160.02,-303.73"/>
<polygon fill="black" stroke="black" points="2156.52,-303.73 2160.02,-313.73 2163.52,-303.73 2156.52,-303.73"/>
</g>
<!-- UploadService -->
<g id="node23" class="node">
<title>UploadService</title>
<ellipse fill="#fdb462" stroke="black" cx="2964" cy="-104" rx="68.34" ry="18"/>
<text text-anchor="middle" x="2964" y="-99.8" font-family="Times,serif" font-size="14.00">UploadService</text>
</g>
<!-- UploadService&#45;&gt;AppModule -->
<g id="edge22" class="edge">
<title>UploadService&#45;&gt;AppModule</title>
<path fill="none" stroke="black" d="M2964,-122.36C2964,-178.32 2964,-343 2964,-343 2964,-343 2174.71,-343 2174.71,-343"/>
<polygon fill="black" stroke="black" points="2174.71,-339.5 2164.71,-343 2174.71,-346.5 2174.71,-339.5"/>
</g>
<!-- UserService -->
<g id="node24" class="node">
<title>UserService</title>
<ellipse fill="#fdb462" stroke="black" cx="2097" cy="-104" rx="58.44" ry="18"/>
<text text-anchor="middle" x="2097" y="-99.8" font-family="Times,serif" font-size="14.00">UserService</text>
</g>
<!-- UserService&#45;&gt;UserModule -->
<g id="edge67" class="edge">
<title>UserService&#45;&gt;UserModule</title>
<path fill="none" stroke="black" d="M2059.98,-118C2059.98,-154.54 2059.98,-250 2059.98,-250 2059.98,-250 1984.31,-250 1984.31,-250"/>
<polygon fill="black" stroke="black" points="1984.31,-246.5 1974.31,-250 1984.31,-253.5 1984.31,-246.5"/>
</g>
<!-- UserService&#45;&gt;AppModule -->
<g id="edge23" class="edge">
<title>UserService&#45;&gt;AppModule</title>
<path fill="none" stroke="black" d="M2149.05,-112.11C2149.05,-112.11 2149.05,-303.85 2149.05,-303.85"/>
<polygon fill="black" stroke="black" points="2145.55,-303.85 2149.05,-313.85 2152.55,-303.85 2145.55,-303.85"/>
</g>
<!-- ValidationService -->
<g id="node25" class="node">
<title>ValidationService</title>
<ellipse fill="#fdb462" stroke="black" cx="2403" cy="-104" rx="80.51" ry="18"/>
<text text-anchor="middle" x="2403" y="-99.8" font-family="Times,serif" font-size="14.00">ValidationService</text>
</g>
<!-- ValidationService&#45;&gt;ValidationModule -->
<g id="edge74" class="edge">
<title>ValidationService&#45;&gt;ValidationModule</title>
<path fill="none" stroke="black" d="M2376.08,-121.15C2376.08,-140.11 2376.08,-168 2376.08,-168 2376.08,-168 2024.44,-168 2024.44,-168"/>
<polygon fill="black" stroke="black" points="2024.44,-164.5 2014.44,-168 2024.44,-171.5 2024.44,-164.5"/>
</g>
<!-- ValidationService&#45;&gt;AppModule -->
<g id="edge24" class="edge">
<title>ValidationService&#45;&gt;AppModule</title>
<path fill="none" stroke="black" d="M2429.92,-121.11C2429.92,-172.5 2429.92,-322 2429.92,-322 2429.92,-322 2174.71,-322 2174.71,-322"/>
<polygon fill="black" stroke="black" points="2174.71,-318.5 2164.71,-322 2174.71,-325.5 2174.71,-318.5"/>
</g>
<!-- AuthService -->
<g id="node28" class="node">
<title>AuthService</title>
<ellipse fill="#fdb462" stroke="black" cx="431" cy="-256" rx="59.11" ry="18"/>
<text text-anchor="middle" x="431" y="-251.8" font-family="Times,serif" font-size="14.00">AuthService</text>
</g>
<!-- AuthService&#45;&gt;AuthModule -->
<g id="edge33" class="edge">
<title>AuthService&#45;&gt;AuthModule</title>
<path fill="none" stroke="black" d="M431,-274.2C431,-298.36 431,-338 431,-338 431,-338 1591.44,-338 1591.44,-338"/>
<polygon fill="black" stroke="black" points="1591.44,-341.5 1601.44,-338 1591.44,-334.5 1591.44,-341.5"/>
</g>
<!-- BlacklistTokenService -->
<g id="node29" class="node">
<title>BlacklistTokenService</title>
<ellipse fill="#fdb462" stroke="black" cx="255" cy="-256" rx="98.99" ry="18"/>
<text text-anchor="middle" x="255" y="-251.8" font-family="Times,serif" font-size="14.00">BlacklistTokenService</text>
</g>
<!-- BlacklistTokenService&#45;&gt;AuthModule -->
<g id="edge34" class="edge">
<title>BlacklistTokenService&#45;&gt;AuthModule</title>
<path fill="none" stroke="black" d="M255,-274.24C255,-299.48 255,-342 255,-342 255,-342 1591.1,-342 1591.1,-342"/>
<polygon fill="black" stroke="black" points="1591.1,-345.5 1601.1,-342 1591.1,-338.5 1591.1,-345.5"/>
</g>
<!-- JwtStrategy -->
<g id="node30" class="node">
<title>JwtStrategy</title>
<ellipse fill="#fdb462" stroke="black" cx="81" cy="-256" rx="56.76" ry="18"/>
<text text-anchor="middle" x="81" y="-251.8" font-family="Times,serif" font-size="14.00">JwtStrategy</text>
</g>
<!-- JwtStrategy&#45;&gt;AuthModule -->
<g id="edge35" class="edge">
<title>JwtStrategy&#45;&gt;AuthModule</title>
<path fill="none" stroke="black" d="M81,-274.21C81,-300.51 81,-346 81,-346 81,-346 1591.13,-346 1591.13,-346"/>
<polygon fill="black" stroke="black" points="1591.13,-349.5 1601.13,-346 1591.13,-342.5 1591.13,-349.5"/>
</g>
<!-- RefreshTokenService -->
<g id="node31" class="node">
<title>RefreshTokenService</title>
<ellipse fill="#fdb462" stroke="black" cx="603" cy="-256" rx="94.88" ry="18"/>
<text text-anchor="middle" x="603" y="-251.8" font-family="Times,serif" font-size="14.00">RefreshTokenService</text>
</g>
<!-- RefreshTokenService&#45;&gt;AuthModule -->
<g id="edge36" class="edge">
<title>RefreshTokenService&#45;&gt;AuthModule</title>
<path fill="none" stroke="black" d="M603,-274.09C603,-297.13 603,-334 603,-334 603,-334 1591.22,-334 1591.22,-334"/>
<polygon fill="black" stroke="black" points="1591.22,-337.5 1601.22,-334 1591.22,-330.5 1591.22,-337.5"/>
</g>
<!-- CacheService  -->
<g id="node33" class="node">
<title>CacheService </title>
<polygon fill="#fb8072" stroke="black" points="4212.46,-350 4115.54,-350 4115.54,-314 4212.46,-314 4212.46,-350"/>
<text text-anchor="middle" x="4164" y="-327.8" font-family="Times,serif" font-size="14.00">CacheService </text>
</g>
<!-- CacheModule&#45;&gt;CacheService  -->
<g id="edge39" class="edge">
<title>CacheModule&#45;&gt;CacheService </title>
<path fill="none" stroke="black" stroke-dasharray="5,2" d="M4164,-274.01C4164,-274.01 4164,-303.85 4164,-303.85"/>
<polygon fill="black" stroke="black" points="4160.5,-303.85 4164,-313.85 4167.5,-303.85 4160.5,-303.85"/>
</g>
<!-- CacheService -->
<g id="node34" class="node">
<title>CacheService</title>
<ellipse fill="#fdb462" stroke="black" cx="4172" cy="-180" rx="64.24" ry="18"/>
<text text-anchor="middle" x="4172" y="-175.8" font-family="Times,serif" font-size="14.00">CacheService</text>
</g>
<!-- CacheService&#45;&gt;CacheModule -->
<g id="edge40" class="edge">
<title>CacheService&#45;&gt;CacheModule</title>
<path fill="none" stroke="black" d="M4179.76,-198.01C4179.76,-198.01 4179.76,-227.85 4179.76,-227.85"/>
<polygon fill="black" stroke="black" points="4176.26,-227.85 4179.76,-237.85 4183.26,-227.85 4176.26,-227.85"/>
</g>
<!-- PaymentProcessorFactory -->
<g id="node36" class="node">
<title>PaymentProcessorFactory</title>
<ellipse fill="#fdb462" stroke="black" cx="566" cy="-180" rx="111.74" ry="18"/>
<text text-anchor="middle" x="566" y="-175.8" font-family="Times,serif" font-size="14.00">PaymentProcessorFactory</text>
</g>
<!-- PaymentProcessorFactory&#45;&gt;PaymentModule -->
<g id="edge50" class="edge">
<title>PaymentProcessorFactory&#45;&gt;PaymentModule</title>
<path fill="none" stroke="black" d="M593.09,-197.6C593.09,-212.69 593.09,-232 593.09,-232 593.09,-232 1320.55,-232 1320.55,-232 1320.55,-232 1320.55,-232.58 1320.55,-232.58"/>
<polygon fill="black" stroke="black" points="1317.05,-227.81 1320.55,-237.81 1324.05,-227.81 1317.05,-227.81"/>
</g>
<!-- PaymentService -->
<g id="node37" class="node">
<title>PaymentService</title>
<ellipse fill="#fdb462" stroke="black" cx="362" cy="-180" rx="73.57" ry="18"/>
<text text-anchor="middle" x="362" y="-175.8" font-family="Times,serif" font-size="14.00">PaymentService</text>
</g>
<!-- PaymentService&#45;&gt;PaymentModule -->
<g id="edge51" class="edge">
<title>PaymentService&#45;&gt;PaymentModule</title>
<path fill="none" stroke="black" d="M403.74,-195.04C403.74,-211.02 403.74,-234 403.74,-234 403.74,-234 1318.61,-234 1318.61,-234 1318.61,-234 1318.61,-234.38 1318.61,-234.38"/>
<polygon fill="black" stroke="black" points="1315.11,-227.83 1318.61,-237.83 1322.11,-227.83 1315.11,-227.83"/>
</g>
<!-- StripeService -->
<g id="node38" class="node">
<title>StripeService</title>
<ellipse fill="#fdb462" stroke="black" cx="207" cy="-180" rx="63.12" ry="18"/>
<text text-anchor="middle" x="207" y="-175.8" font-family="Times,serif" font-size="14.00">StripeService</text>
</g>
<!-- StripeService&#45;&gt;PaymentModule -->
<g id="edge53" class="edge">
<title>StripeService&#45;&gt;PaymentModule</title>
<path fill="none" stroke="black" d="M213.03,-198.03C213.03,-214.4 213.03,-236 213.03,-236 213.03,-236 1316.67,-236 1316.67,-236 1316.67,-236 1316.67,-236.18 1316.67,-236.18"/>
<polygon fill="black" stroke="black" points="1313.17,-227.85 1316.67,-237.85 1320.17,-227.85 1313.17,-227.85"/>
</g>
<!-- EvolutionApiService -->
<g id="node41" class="node">
<title>EvolutionApiService</title>
<ellipse fill="#fdb462" stroke="black" cx="3165" cy="-104" rx="92.64" ry="18"/>
<text text-anchor="middle" x="3165" y="-99.8" font-family="Times,serif" font-size="14.00">EvolutionApiService</text>
</g>
<!-- EvolutionApiService&#45;&gt;SmsModule -->
<g id="edge58" class="edge">
<title>EvolutionApiService&#45;&gt;SmsModule</title>
<path fill="none" stroke="black" d="M3138.93,-121.57C3138.93,-133.08 3138.93,-146 3138.93,-146 3138.93,-146 1629.07,-146 1629.07,-146 1629.07,-146 1629.07,-151.81 1629.07,-151.81"/>
<polygon fill="black" stroke="black" points="1625.57,-151.81 1629.07,-161.81 1632.57,-151.81 1625.57,-151.81"/>
</g>
<!-- CloudinaryService -->
<g id="node43" class="node">
<title>CloudinaryService</title>
<ellipse fill="#fdb462" stroke="black" cx="3429" cy="-256" rx="83.39" ry="18"/>
<text text-anchor="middle" x="3429" y="-251.8" font-family="Times,serif" font-size="14.00">CloudinaryService</text>
</g>
<!-- CloudinaryService&#45;&gt;UploadModule -->
<g id="edge62" class="edge">
<title>CloudinaryService&#45;&gt;UploadModule</title>
<path fill="none" stroke="black" d="M3429,-237.81C3429,-222.82 3429,-204 3429,-204 3429,-204 1711.61,-204 1711.61,-204 1711.61,-204 1711.61,-203.42 1711.61,-203.42"/>
<polygon fill="black" stroke="black" points="1715.11,-208.19 1711.61,-198.19 1708.11,-208.19 1715.11,-208.19"/>
</g>
</g>
</svg>
